# MagicaVoxel @ Ephtracy

# group
o 

# material
mtllib Chicken_Body.mtl
usemtl palette

# normals
vn -1 0 0
vn 1 0 0
vn 0 0 1
vn 0 0 -1
vn 0 -1 0
vn 0 1 0

# texcoords
vt 0.0644531 0.5
vt 0.853516 0.5
vt 0.861328 0.5
vt 0.865234 0.5
vt 0.958984 0.5
vt 0.966797 0.5
vt 0.994141 0.5

# verts
v -0.9 0.6 0.4
v -0.9 0.6 0.2
v -0.9 2.5 0.4
v -0.9 2.5 0.2
v -0.8 0.7 0.2
v -0.8 0.7 0.1
v -0.8 1.6 0.5
v -0.8 1.6 0.4
v -0.8 2.3 0.5
v -0.8 2.3 0.4
v -0.8 2.4 0.2
v -0.8 2.4 0.1
v -0.7 0.8 0.1
v -0.7 0.8 0
v -0.7 2.3 0.1
v -0.7 2.3 0
v -0.6 0.9 0
v -0.6 0.9 -0.1
v -0.6 2.2 0
v -0.6 2.2 -0.1
v -0.6 2.8 0.4
v -0.6 2.8 0.2
v -0.6 2.9 0.6
v -0.6 2.9 0.4
v -0.6 3 0.6
v -0.6 3 0.5
v -0.6 3.5 0.6
v -0.6 3.5 0.5
v -0.6 3.6 0.6
v -0.6 3.6 0.2
v -0.5 0.7 0.1
v -0.5 0.7 0
v -0.5 0.8 0.1
v -0.5 0.8 0
v -0.5 2.7 0.4
v -0.5 2.7 0.2
v -0.5 2.8 0.5
v -0.5 2.8 0.4
v -0.5 2.8 0.2
v -0.5 2.9 0.7
v -0.5 2.9 0.6
v -0.5 2.9 0.5
v -0.5 2.9 0.4
v -0.5 3 0.7
v -0.5 3 0.6
v -0.5 3.3 0.7
v -0.5 3.3 0.6
v -0.5 3.4 0.7
v -0.5 3.4 0.6
v -0.5 3.5 0.7
v -0.5 3.5 0.6
v -0.5 3.6 0.7
v -0.5 3.6 0.6
v -0.5 3.6 0.5
v -0.5 3.6 0.3
v -0.5 3.7 0.5
v -0.5 3.7 0.3
v -0.4 0.5 0
v -0.4 0.5 -0.2
v -0.4 0.6 0.2
v -0.4 0.6 0
v -0.4 0.7 0.2
v -0.4 0.7 0
v -0.4 0.7 -0.1
v -0.4 0.7 -0.2
v -0.4 0.9 0
v -0.4 0.9 -0.1
v -0.4 2.5 0.4
v -0.4 2.5 0.2
v -0.4 2.7 0.4
v -0.4 2.7 0.2
v -0.4 2.8 0.2
v -0.4 2.8 0.1
v -0.4 2.9 0.9
v -0.4 2.9 0.7
v -0.4 3 0.9
v -0.4 3 0.7
v -0.4 3 0.2
v -0.4 3 0.1
v -0.4 3.1 0.9
v -0.4 3.1 0.7
v -0.4 3.2 0.9
v -0.4 3.2 0.7
v -0.4 3.3 0.9
v -0.4 3.3 0.7
v -0.4 3.4 0.9
v -0.4 3.4 0.7
v -0.4 3.5 0.5
v -0.4 3.5 0.4
v -0.4 3.6 0.5
v -0.4 3.6 0.4
v -0.4 3.6 0.3
v -0.4 3.6 0.2
v -0.4 3.7 0.5
v -0.4 3.7 0.3
v -0.4 3.8 0.3
v -0.4 3.8 0.2
v -0.4 3.9 0.4
v -0.4 3.9 0.3
v -0.4 4 0.5
v -0.4 4 0.4
v -0.2 2.1 0.5
v -0.2 2.1 0.4
v -0.2 2.2 0.5
v -0.2 2.2 0.4
v -0.2 3 0.7
v -0.2 3 0.6
v -0.2 3 0.4
v -0.2 3 0.3
v -0.2 3.1 0.7
v -0.2 3.1 0.4
v -0.2 3.1 0.3
v -0.2 3.2 0.7
v -0.2 3.3 0.7
v -0.2 3.3 0.6
v -0.2 3.5 0.7
v -0.2 3.5 0.6
v -0.2 3.6 0.7
v -0.2 3.6 0.6
v -0.1 2.2 0.5
v -0.1 2.2 0.4
v -0.1 2.3 0.5
v -0.1 2.3 0.4
v -0.1 3 0.5
v -0.1 3 0.4
v -0.1 3.1 0.4
v -0.1 3.1 0.3
v -0.1 3.3 0.5
v -0.1 3.4 0.5
v -0.1 3.5 0.5
v -0.1 3.5 0.3
v -0.5 2.2 0.5
v -0.5 2.2 0.4
v -0.5 2.3 0.5
v -0.5 2.3 0.4
v -0.5 3 0.5
v -0.5 3 0.4
v -0.5 3.1 0.4
v -0.5 3.1 0.3
v -0.5 3.3 0.5
v -0.5 3.4 0.5
v -0.5 3.4 0.4
v -0.5 3.4 0.3
v -0.5 3.5 0.5
v -0.5 3.6 0.5
v -0.5 3.6 0.4
v -0.4 2.1 0.5
v -0.4 2.1 0.4
v -0.4 2.2 0.5
v -0.4 2.2 0.4
v -0.4 3 0.7
v -0.4 3 0.6
v -0.4 3 0.4
v -0.4 3 0.3
v -0.4 3.1 0.7
v -0.4 3.1 0.4
v -0.4 3.1 0.3
v -0.4 3.2 0.7
v -0.4 3.3 0.7
v -0.4 3.3 0.6
v -0.4 3.4 0.4
v -0.4 3.4 0.3
v -0.4 3.5 0.7
v -0.4 3.5 0.6
v -0.4 3.5 0.4
v -0.4 3.5 0.3
v -0.4 3.6 0.7
v -0.4 3.6 0.6
v -0.2 2.5 0.4
v -0.2 2.5 0.2
v -0.2 2.7 0.4
v -0.2 2.7 0.2
v -0.2 2.8 0.2
v -0.2 2.8 0.1
v -0.2 2.9 0.9
v -0.2 2.9 0.7
v -0.2 3 0.9
v -0.2 3 0.7
v -0.2 3 0.2
v -0.2 3 0.1
v -0.2 3.1 0.9
v -0.2 3.1 0.7
v -0.2 3.2 0.9
v -0.2 3.2 0.7
v -0.2 3.3 0.9
v -0.2 3.3 0.7
v -0.2 3.4 0.9
v -0.2 3.4 0.7
v -0.2 3.6 0.3
v -0.2 3.6 0.2
v -0.2 3.7 0.5
v -0.2 3.7 0.3
v -0.2 3.8 0.3
v -0.2 3.8 0.2
v -0.2 3.9 0.4
v -0.2 3.9 0.3
v -0.2 4 0.5
v -0.2 4 0.4
v -0.1 0.5 0
v -0.1 0.5 -0.2
v -0.1 0.6 0.2
v -0.1 0.6 0
v -0.1 0.7 0.2
v -0.1 0.7 0
v -0.1 0.7 -0.1
v -0.1 0.7 -0.2
v -0.1 0.9 0
v -0.1 0.9 -0.1
v -0.1 2.7 0.4
v -0.1 2.7 0.2
v -0.1 2.8 0.5
v -0.1 2.8 0.4
v -0.1 2.8 0.2
v -0.1 2.9 0.7
v -0.1 2.9 0.6
v -0.1 2.9 0.5
v -0.1 2.9 0.4
v -0.1 3 0.7
v -0.1 3 0.6
v -0.1 3.3 0.7
v -0.1 3.3 0.6
v -0.1 3.4 0.7
v -0.1 3.4 0.6
v -0.1 3.5 0.7
v -0.1 3.5 0.6
v -0.1 3.6 0.7
v -0.1 3.6 0.6
v -0.1 3.6 0.5
v -0.1 3.6 0.3
v -0.1 3.7 0.5
v -0.1 3.7 0.3
v 0 0.7 0.1
v 0 0.7 0
v 0 0.8 0.1
v 0 0.8 0
v 0 0.9 0
v 0 0.9 -0.1
v 0 2.2 0
v 0 2.2 -0.1
v 0 2.8 0.4
v 0 2.8 0.2
v 0 2.9 0.6
v 0 2.9 0.4
v 0 3 0.6
v 0 3 0.5
v 0 3.5 0.6
v 0 3.5 0.5
v 0 3.6 0.6
v 0 3.6 0.2
v 0.1 0.8 0.1
v 0.1 0.8 0
v 0.1 2.3 0.1
v 0.1 2.3 0
v 0.2 0.7 0.2
v 0.2 0.7 0.1
v 0.2 1.6 0.5
v 0.2 1.6 0.4
v 0.2 2.3 0.5
v 0.2 2.3 0.4
v 0.2 2.4 0.2
v 0.2 2.4 0.1
v 0.3 0.6 0.4
v 0.3 0.6 0.2
v 0.3 2.5 0.4
v 0.3 2.5 0.2
v -0.4 2.9 0.9
v -0.4 3 0.9
v -0.4 3.1 0.9
v -0.4 3.2 0.9
v -0.4 3.3 0.9
v -0.4 3.4 0.9
v -0.2 2.9 0.9
v -0.2 3 0.9
v -0.2 3.1 0.9
v -0.2 3.2 0.9
v -0.2 3.3 0.9
v -0.2 3.4 0.9
v -0.5 2.9 0.7
v -0.5 3 0.7
v -0.5 3.3 0.7
v -0.5 3.4 0.7
v -0.5 3.5 0.7
v -0.5 3.6 0.7
v -0.4 2.9 0.7
v -0.4 3 0.7
v -0.4 3.1 0.7
v -0.4 3.2 0.7
v -0.4 3.3 0.7
v -0.4 3.4 0.7
v -0.4 3.5 0.7
v -0.4 3.6 0.7
v -0.2 2.9 0.7
v -0.2 3 0.7
v -0.2 3.1 0.7
v -0.2 3.2 0.7
v -0.2 3.3 0.7
v -0.2 3.4 0.7
v -0.2 3.5 0.7
v -0.2 3.6 0.7
v -0.1 2.9 0.7
v -0.1 3 0.7
v -0.1 3.3 0.7
v -0.1 3.4 0.7
v -0.1 3.5 0.7
v -0.1 3.6 0.7
v -0.6 2.9 0.6
v -0.6 3 0.6
v -0.6 3.5 0.6
v -0.6 3.6 0.6
v -0.5 2.9 0.6
v -0.5 3 0.6
v -0.5 3.3 0.6
v -0.5 3.4 0.6
v -0.5 3.5 0.6
v -0.5 3.6 0.6
v -0.4 3 0.6
v -0.4 3.3 0.6
v -0.4 3.4 0.6
v -0.4 3.5 0.6
v -0.4 3.6 0.6
v -0.2 3 0.6
v -0.2 3.3 0.6
v -0.2 3.4 0.6
v -0.2 3.5 0.6
v -0.2 3.6 0.6
v -0.1 2.9 0.6
v -0.1 3 0.6
v -0.1 3.3 0.6
v -0.1 3.4 0.6
v -0.1 3.5 0.6
v -0.1 3.6 0.6
v 0 2.9 0.6
v 0 3 0.6
v 0 3.5 0.6
v 0 3.6 0.6
v -0.8 1.6 0.5
v -0.8 2.3 0.5
v -0.5 2.2 0.5
v -0.5 2.3 0.5
v -0.5 2.8 0.5
v -0.5 2.9 0.5
v -0.5 3.6 0.5
v -0.5 3.7 0.5
v -0.4 2.1 0.5
v -0.4 2.2 0.5
v -0.4 3.7 0.5
v -0.4 4 0.5
v -0.2 2.1 0.5
v -0.2 2.2 0.5
v -0.2 3.7 0.5
v -0.2 4 0.5
v -0.1 2.2 0.5
v -0.1 2.3 0.5
v -0.1 2.8 0.5
v -0.1 2.9 0.5
v -0.1 3.6 0.5
v -0.1 3.7 0.5
v 0.2 1.6 0.5
v 0.2 2.3 0.5
v -0.9 0.6 0.4
v -0.9 2.5 0.4
v -0.8 1.6 0.4
v -0.8 2.3 0.4
v -0.6 2.8 0.4
v -0.6 2.9 0.4
v -0.5 2.2 0.4
v -0.5 2.3 0.4
v -0.5 2.7 0.4
v -0.5 2.8 0.4
v -0.5 2.9 0.4
v -0.5 3 0.4
v -0.5 3.1 0.4
v -0.5 3.4 0.4
v -0.5 3.6 0.4
v -0.4 2.1 0.4
v -0.4 2.2 0.4
v -0.4 2.5 0.4
v -0.4 2.7 0.4
v -0.4 3 0.4
v -0.4 3.1 0.4
v -0.4 3.4 0.4
v -0.4 3.5 0.4
v -0.4 3.6 0.4
v -0.2 2.1 0.4
v -0.2 2.2 0.4
v -0.2 2.5 0.4
v -0.2 2.7 0.4
v -0.2 3 0.4
v -0.2 3.1 0.4
v -0.1 2.2 0.4
v -0.1 2.3 0.4
v -0.1 2.7 0.4
v -0.1 2.8 0.4
v -0.1 2.9 0.4
v -0.1 3 0.4
v -0.1 3.1 0.4
v 0 2.8 0.4
v 0 2.9 0.4
v 0.2 1.6 0.4
v 0.2 2.3 0.4
v 0.3 0.6 0.4
v 0.3 2.5 0.4
v -0.5 3.1 0.3
v -0.5 3.4 0.3
v -0.4 3 0.3
v -0.4 3.1 0.3
v -0.4 3.4 0.3
v -0.4 3.5 0.3
v -0.2 3 0.3
v -0.2 3.1 0.3
v -0.1 3.1 0.3
v -0.1 3.5 0.3
v -0.4 0.5 0
v -0.4 0.6 0
v -0.1 0.5 0
v -0.1 0.6 0
v -0.4 3 0.7
v -0.4 3.1 0.7
v -0.4 3.2 0.7
v -0.4 3.3 0.7
v -0.2 3 0.7
v -0.2 3.1 0.7
v -0.2 3.2 0.7
v -0.2 3.3 0.7
v -0.5 3 0.5
v -0.5 3.3 0.5
v -0.5 3.4 0.5
v -0.5 3.5 0.5
v -0.5 3.6 0.5
v -0.4 3.4 0.5
v -0.4 3.5 0.5
v -0.4 3.6 0.5
v -0.2 3.4 0.5
v -0.2 3.5 0.5
v -0.1 3 0.5
v -0.1 3.3 0.5
v -0.1 3.4 0.5
v -0.1 3.5 0.5
v -0.4 3.9 0.4
v -0.4 4 0.4
v -0.2 3.9 0.4
v -0.2 4 0.4
v -0.5 3.6 0.3
v -0.5 3.7 0.3
v -0.4 3.6 0.3
v -0.4 3.7 0.3
v -0.4 3.8 0.3
v -0.4 3.9 0.3
v -0.2 3.6 0.3
v -0.2 3.7 0.3
v -0.2 3.8 0.3
v -0.2 3.9 0.3
v -0.1 3.6 0.3
v -0.1 3.7 0.3
v -0.9 0.6 0.2
v -0.9 2.5 0.2
v -0.8 0.7 0.2
v -0.8 2.4 0.2
v -0.6 2.8 0.2
v -0.6 3.6 0.2
v -0.5 2.7 0.2
v -0.5 2.8 0.2
v -0.4 0.6 0.2
v -0.4 0.7 0.2
v -0.4 2.5 0.2
v -0.4 2.7 0.2
v -0.4 2.8 0.2
v -0.4 3 0.2
v -0.4 3.6 0.2
v -0.4 3.8 0.2
v -0.2 2.5 0.2
v -0.2 2.7 0.2
v -0.2 2.8 0.2
v -0.2 3 0.2
v -0.2 3.6 0.2
v -0.2 3.8 0.2
v -0.1 0.6 0.2
v -0.1 0.7 0.2
v -0.1 2.7 0.2
v -0.1 2.8 0.2
v 0 2.8 0.2
v 0 3.6 0.2
v 0.2 0.7 0.2
v 0.2 2.4 0.2
v 0.3 0.6 0.2
v 0.3 2.5 0.2
v -0.8 0.7 0.1
v -0.8 2.4 0.1
v -0.7 0.8 0.1
v -0.7 2.3 0.1
v -0.5 0.7 0.1
v -0.5 0.8 0.1
v -0.4 2.8 0.1
v -0.4 3 0.1
v -0.2 2.8 0.1
v -0.2 3 0.1
v 0 0.7 0.1
v 0 0.8 0.1
v 0.1 0.8 0.1
v 0.1 2.3 0.1
v 0.2 0.7 0.1
v 0.2 2.4 0.1
v -0.7 0.8 0
v -0.7 2.3 0
v -0.6 0.9 0
v -0.6 2.2 0
v -0.5 0.7 0
v -0.5 0.8 0
v -0.4 0.7 0
v -0.4 0.9 0
v -0.1 0.7 0
v -0.1 0.9 0
v 0 0.7 0
v 0 0.8 0
v 0 0.9 0
v 0 2.2 0
v 0.1 0.8 0
v 0.1 2.3 0
v -0.6 0.9 -0.1
v -0.6 2.2 -0.1
v -0.4 0.7 -0.1
v -0.4 0.9 -0.1
v -0.1 0.7 -0.1
v -0.1 0.9 -0.1
v 0 0.9 -0.1
v 0 2.2 -0.1
v -0.4 0.5 -0.2
v -0.4 0.7 -0.2
v -0.1 0.5 -0.2
v -0.1 0.7 -0.2
v -0.4 0.5 0
v -0.1 0.5 0
v -0.4 0.5 -0.2
v -0.1 0.5 -0.2
v -0.9 0.6 0.4
v 0.3 0.6 0.4
v -0.9 0.6 0.2
v -0.4 0.6 0.2
v -0.1 0.6 0.2
v 0.3 0.6 0.2
v -0.4 0.6 0
v -0.1 0.6 0
v -0.8 0.7 0.2
v -0.4 0.7 0.2
v -0.1 0.7 0.2
v 0.2 0.7 0.2
v -0.8 0.7 0.1
v -0.5 0.7 0.1
v 0 0.7 0.1
v 0.2 0.7 0.1
v -0.5 0.7 0
v -0.4 0.7 0
v -0.1 0.7 0
v 0 0.7 0
v -0.7 0.8 0.1
v -0.5 0.8 0.1
v 0 0.8 0.1
v 0.1 0.8 0.1
v -0.7 0.8 0
v -0.5 0.8 0
v 0 0.8 0
v 0.1 0.8 0
v -0.6 0.9 0
v -0.4 0.9 0
v -0.1 0.9 0
v 0 0.9 0
v -0.6 0.9 -0.1
v -0.4 0.9 -0.1
v -0.1 0.9 -0.1
v 0 0.9 -0.1
v -0.8 1.6 0.5
v 0.2 1.6 0.5
v -0.8 1.6 0.4
v 0.2 1.6 0.4
v -0.5 2.7 0.4
v -0.4 2.7 0.4
v -0.2 2.7 0.4
v -0.1 2.7 0.4
v -0.5 2.7 0.2
v -0.4 2.7 0.2
v -0.2 2.7 0.2
v -0.1 2.7 0.2
v -0.5 2.8 0.5
v -0.1 2.8 0.5
v -0.6 2.8 0.4
v -0.5 2.8 0.4
v -0.1 2.8 0.4
v 0 2.8 0.4
v -0.6 2.8 0.2
v -0.5 2.8 0.2
v -0.4 2.8 0.2
v -0.2 2.8 0.2
v -0.1 2.8 0.2
v 0 2.8 0.2
v -0.4 2.8 0.1
v -0.2 2.8 0.1
v -0.4 2.9 0.9
v -0.2 2.9 0.9
v -0.5 2.9 0.7
v -0.4 2.9 0.7
v -0.2 2.9 0.7
v -0.1 2.9 0.7
v -0.6 2.9 0.6
v -0.5 2.9 0.6
v -0.1 2.9 0.6
v 0 2.9 0.6
v -0.5 2.9 0.5
v -0.1 2.9 0.5
v -0.6 2.9 0.4
v -0.5 2.9 0.4
v -0.1 2.9 0.4
v 0 2.9 0.4
v -0.4 3.2 0.9
v -0.2 3.2 0.9
v -0.4 3.2 0.7
v -0.2 3.2 0.7
v -0.4 3.3 0.7
v -0.2 3.3 0.7
v -0.4 3.3 0.6
v -0.2 3.3 0.6
v -0.5 3.4 0.4
v -0.4 3.4 0.4
v -0.5 3.4 0.3
v -0.4 3.4 0.3
v -0.5 3.5 0.7
v -0.4 3.5 0.7
v -0.2 3.5 0.7
v -0.1 3.5 0.7
v -0.5 3.5 0.6
v -0.4 3.5 0.6
v -0.2 3.5 0.6
v -0.1 3.5 0.6
v -0.4 3.5 0.5
v -0.2 3.5 0.5
v -0.1 3.5 0.5
v -0.4 3.5 0.4
v -0.4 3.5 0.3
v -0.1 3.5 0.3
v -0.5 3.6 0.5
v -0.4 3.6 0.5
v -0.5 3.6 0.4
v -0.4 3.6 0.4
v -0.4 0.7 -0.1
v -0.1 0.7 -0.1
v -0.4 0.7 -0.2
v -0.1 0.7 -0.2
v -0.4 2.1 0.5
v -0.2 2.1 0.5
v -0.4 2.1 0.4
v -0.2 2.1 0.4
v -0.5 2.2 0.5
v -0.4 2.2 0.5
v -0.2 2.2 0.5
v -0.1 2.2 0.5
v -0.5 2.2 0.4
v -0.4 2.2 0.4
v -0.2 2.2 0.4
v -0.1 2.2 0.4
v -0.6 2.2 0
v 0 2.2 0
v -0.6 2.2 -0.1
v 0 2.2 -0.1
v -0.8 2.3 0.5
v -0.5 2.3 0.5
v -0.1 2.3 0.5
v 0.2 2.3 0.5
v -0.8 2.3 0.4
v -0.5 2.3 0.4
v -0.1 2.3 0.4
v 0.2 2.3 0.4
v -0.7 2.3 0.1
v 0.1 2.3 0.1
v -0.7 2.3 0
v 0.1 2.3 0
v -0.8 2.4 0.2
v 0.2 2.4 0.2
v -0.8 2.4 0.1
v 0.2 2.4 0.1
v -0.9 2.5 0.4
v -0.4 2.5 0.4
v -0.2 2.5 0.4
v 0.3 2.5 0.4
v -0.9 2.5 0.2
v -0.4 2.5 0.2
v -0.2 2.5 0.2
v 0.3 2.5 0.2
v -0.4 3 0.7
v -0.2 3 0.7
v -0.4 3 0.6
v -0.2 3 0.6
v -0.5 3 0.5
v -0.1 3 0.5
v -0.5 3 0.4
v -0.4 3 0.4
v -0.2 3 0.4
v -0.1 3 0.4
v -0.4 3 0.3
v -0.2 3 0.3
v -0.4 3 0.2
v -0.2 3 0.2
v -0.4 3 0.1
v -0.2 3 0.1
v -0.4 3.1 0.9
v -0.2 3.1 0.9
v -0.4 3.1 0.7
v -0.2 3.1 0.7
v -0.5 3.1 0.4
v -0.4 3.1 0.4
v -0.2 3.1 0.4
v -0.1 3.1 0.4
v -0.5 3.1 0.3
v -0.4 3.1 0.3
v -0.2 3.1 0.3
v -0.1 3.1 0.3
v -0.4 3.4 0.9
v -0.2 3.4 0.9
v -0.5 3.4 0.7
v -0.4 3.4 0.7
v -0.2 3.4 0.7
v -0.1 3.4 0.7
v -0.5 3.4 0.6
v -0.4 3.4 0.6
v -0.2 3.4 0.6
v -0.1 3.4 0.6
v -0.5 3.6 0.7
v -0.4 3.6 0.7
v -0.2 3.6 0.7
v -0.1 3.6 0.7
v -0.6 3.6 0.6
v -0.5 3.6 0.6
v -0.4 3.6 0.6
v -0.2 3.6 0.6
v -0.1 3.6 0.6
v 0 3.6 0.6
v -0.5 3.6 0.5
v -0.1 3.6 0.5
v -0.5 3.6 0.3
v -0.4 3.6 0.3
v -0.2 3.6 0.3
v -0.1 3.6 0.3
v -0.6 3.6 0.2
v -0.4 3.6 0.2
v -0.2 3.6 0.2
v 0 3.6 0.2
v -0.5 3.7 0.5
v -0.4 3.7 0.5
v -0.2 3.7 0.5
v -0.1 3.7 0.5
v -0.5 3.7 0.3
v -0.4 3.7 0.3
v -0.2 3.7 0.3
v -0.1 3.7 0.3
v -0.4 3.8 0.3
v -0.2 3.8 0.3
v -0.4 3.8 0.2
v -0.2 3.8 0.2
v -0.4 3.9 0.4
v -0.2 3.9 0.4
v -0.4 3.9 0.3
v -0.2 3.9 0.3
v -0.4 4 0.5
v -0.2 4 0.5
v -0.4 4 0.4
v -0.2 4 0.4

# faces
f 3/6/1 2/6/1 1/6/1
f 4/6/1 2/6/1 3/6/1
f 9/6/1 8/6/1 7/6/1
f 10/6/1 8/6/1 9/6/1
f 11/6/1 6/6/1 5/6/1
f 12/6/1 6/6/1 11/6/1
f 15/6/1 14/6/1 13/6/1
f 16/6/1 14/6/1 15/6/1
f 19/6/1 18/6/1 17/6/1
f 20/6/1 18/6/1 19/6/1
f 24/6/1 22/6/1 21/6/1
f 25/6/1 24/6/1 23/6/1
f 26/6/1 24/6/1 25/6/1
f 27/2/1 26/2/1 25/2/1
f 28/6/1 24/6/1 26/6/1
f 28/2/1 26/2/1 27/2/1
f 29/6/1 28/6/1 27/6/1
f 30/6/1 22/6/1 24/6/1
f 30/6/1 28/6/1 29/6/1
f 30/6/1 24/6/1 28/6/1
f 33/6/1 32/6/1 31/6/1
f 34/6/1 32/6/1 33/6/1
f 38/6/1 36/6/1 35/6/1
f 39/6/1 36/6/1 38/6/1
f 42/6/1 38/6/1 37/6/1
f 43/6/1 38/6/1 42/6/1
f 44/1/1 41/1/1 40/1/1
f 45/1/1 41/1/1 44/1/1
f 46/5/1 45/5/1 44/5/1
f 47/5/1 45/5/1 46/5/1
f 48/1/1 47/1/1 46/1/1
f 49/1/1 47/1/1 48/1/1
f 52/7/1 51/7/1 50/7/1
f 53/7/1 51/7/1 52/7/1
f 56/6/1 55/6/1 54/6/1
f 57/6/1 55/6/1 56/6/1
f 61/6/1 59/6/1 58/6/1
f 62/6/1 61/6/1 60/6/1
f 63/6/1 59/6/1 61/6/1
f 63/6/1 61/6/1 62/6/1
f 64/6/1 59/6/1 63/6/1
f 65/6/1 59/6/1 64/6/1
f 66/6/1 64/6/1 63/6/1
f 67/6/1 64/6/1 66/6/1
f 70/6/1 69/6/1 68/6/1
f 71/6/1 69/6/1 70/6/1
f 76/1/1 75/1/1 74/1/1
f 77/1/1 75/1/1 76/1/1
f 78/6/1 73/6/1 72/6/1
f 79/6/1 73/6/1 78/6/1
f 80/5/1 77/5/1 76/5/1
f 81/5/1 77/5/1 80/5/1
f 84/5/1 83/5/1 82/5/1
f 85/5/1 83/5/1 84/5/1
f 86/1/1 85/1/1 84/1/1
f 87/1/1 85/1/1 86/1/1
f 90/6/1 89/6/1 88/6/1
f 91/6/1 89/6/1 90/6/1
f 95/4/1 93/4/1 92/4/1
f 96/4/1 93/4/1 95/4/1
f 96/4/1 95/4/1 94/4/1
f 97/4/1 93/4/1 96/4/1
f 98/4/1 96/4/1 94/4/1
f 99/4/1 96/4/1 98/4/1
f 100/4/1 98/4/1 94/4/1
f 101/4/1 98/4/1 100/4/1
f 104/6/1 103/6/1 102/6/1
f 105/6/1 103/6/1 104/6/1
f 110/5/1 107/5/1 106/5/1
f 111/6/1 109/6/1 108/6/1
f 112/6/1 109/6/1 111/6/1
f 113/5/1 107/5/1 110/5/1
f 114/5/1 107/5/1 113/5/1
f 115/5/1 107/5/1 114/5/1
f 118/7/1 117/7/1 116/7/1
f 119/7/1 117/7/1 118/7/1
f 122/6/1 121/6/1 120/6/1
f 123/6/1 121/6/1 122/6/1
f 126/6/1 125/6/1 124/6/1
f 128/6/1 126/6/1 124/6/1
f 128/6/1 127/6/1 126/6/1
f 129/6/1 127/6/1 128/6/1
f 130/6/1 127/6/1 129/6/1
f 131/6/1 127/6/1 130/6/1
f 132/6/2 133/6/2 134/6/2
f 134/6/2 133/6/2 135/6/2
f 136/6/2 137/6/2 138/6/2
f 136/6/2 138/6/2 140/6/2
f 138/6/2 139/6/2 140/6/2
f 140/6/2 139/6/2 141/6/2
f 141/6/2 139/6/2 142/6/2
f 142/6/2 139/6/2 143/6/2
f 141/6/2 142/6/2 144/6/2
f 144/6/2 142/6/2 145/6/2
f 145/6/2 142/6/2 146/6/2
f 147/6/2 148/6/2 149/6/2
f 149/6/2 148/6/2 150/6/2
f 151/5/2 152/5/2 155/5/2
f 153/6/2 154/6/2 156/6/2
f 156/6/2 154/6/2 157/6/2
f 155/5/2 152/5/2 158/5/2
f 158/5/2 152/5/2 159/5/2
f 159/5/2 152/5/2 160/5/2
f 161/6/2 162/6/2 165/6/2
f 165/6/2 162/6/2 166/6/2
f 163/7/2 164/7/2 167/7/2
f 167/7/2 164/7/2 168/7/2
f 169/6/2 170/6/2 171/6/2
f 171/6/2 170/6/2 172/6/2
f 175/1/2 176/1/2 177/1/2
f 177/1/2 176/1/2 178/1/2
f 173/6/2 174/6/2 179/6/2
f 179/6/2 174/6/2 180/6/2
f 177/5/2 178/5/2 181/5/2
f 181/5/2 178/5/2 182/5/2
f 183/5/2 184/5/2 185/5/2
f 185/5/2 184/5/2 186/5/2
f 185/1/2 186/1/2 187/1/2
f 187/1/2 186/1/2 188/1/2
f 189/4/2 190/4/2 192/4/2
f 192/4/2 190/4/2 193/4/2
f 191/4/2 192/4/2 193/4/2
f 193/4/2 190/4/2 194/4/2
f 191/4/2 193/4/2 195/4/2
f 195/4/2 193/4/2 196/4/2
f 191/4/2 195/4/2 197/4/2
f 197/4/2 195/4/2 198/4/2
f 199/6/2 200/6/2 202/6/2
f 201/6/2 202/6/2 203/6/2
f 202/6/2 200/6/2 204/6/2
f 203/6/2 202/6/2 204/6/2
f 204/6/2 200/6/2 205/6/2
f 205/6/2 200/6/2 206/6/2
f 204/6/2 205/6/2 207/6/2
f 207/6/2 205/6/2 208/6/2
f 209/6/2 210/6/2 212/6/2
f 212/6/2 210/6/2 213/6/2
f 211/6/2 212/6/2 216/6/2
f 216/6/2 212/6/2 217/6/2
f 214/1/2 215/1/2 218/1/2
f 218/1/2 215/1/2 219/1/2
f 218/5/2 219/5/2 220/5/2
f 220/5/2 219/5/2 221/5/2
f 220/1/2 221/1/2 222/1/2
f 222/1/2 221/1/2 223/1/2
f 224/7/2 225/7/2 226/7/2
f 226/7/2 225/7/2 227/7/2
f 228/6/2 229/6/2 230/6/2
f 230/6/2 229/6/2 231/6/2
f 232/6/2 233/6/2 234/6/2
f 234/6/2 233/6/2 235/6/2
f 236/6/2 237/6/2 238/6/2
f 238/6/2 237/6/2 239/6/2
f 240/6/2 241/6/2 243/6/2
f 242/6/2 243/6/2 244/6/2
f 244/6/2 243/6/2 245/6/2
f 244/2/2 245/2/2 246/2/2
f 245/6/2 243/6/2 247/6/2
f 246/2/2 245/2/2 247/2/2
f 246/6/2 247/6/2 248/6/2
f 243/6/2 241/6/2 249/6/2
f 248/6/2 247/6/2 249/6/2
f 247/6/2 243/6/2 249/6/2
f 250/6/2 251/6/2 252/6/2
f 252/6/2 251/6/2 253/6/2
f 256/6/2 257/6/2 258/6/2
f 258/6/2 257/6/2 259/6/2
f 254/6/2 255/6/2 260/6/2
f 260/6/2 255/6/2 261/6/2
f 262/6/2 263/6/2 264/6/2
f 264/6/2 263/6/2 265/6/2
f 272/1/3 267/1/3 266/1/3
f 273/5/3 268/5/3 267/5/3
f 273/1/3 267/1/3 272/1/3
f 274/5/3 268/5/3 273/5/3
f 275/5/3 270/5/3 269/5/3
f 276/1/3 271/1/3 270/1/3
f 276/5/3 270/5/3 275/5/3
f 277/1/3 271/1/3 276/1/3
f 284/1/3 279/1/3 278/1/3
f 285/5/3 280/5/3 279/5/3
f 285/1/3 279/1/3 284/1/3
f 286/5/3 280/5/3 285/5/3
f 287/5/3 280/5/3 286/5/3
f 288/1/3 281/1/3 280/1/3
f 288/5/3 280/5/3 287/5/3
f 289/1/3 281/1/3 288/1/3
f 290/7/3 283/7/3 282/7/3
f 291/7/3 283/7/3 290/7/3
f 300/1/3 293/1/3 292/1/3
f 301/5/3 294/5/3 293/5/3
f 301/1/3 293/1/3 300/1/3
f 301/5/3 295/5/3 294/5/3
f 301/5/3 296/5/3 295/5/3
f 302/1/3 297/1/3 296/1/3
f 302/5/3 296/5/3 301/5/3
f 303/1/3 297/1/3 302/1/3
f 304/7/3 299/7/3 298/7/3
f 305/7/3 299/7/3 304/7/3
f 310/6/3 307/6/3 306/6/3
f 311/2/3 308/2/3 307/2/3
f 311/6/3 307/6/3 310/6/3
f 312/2/3 308/2/3 311/2/3
f 313/2/3 308/2/3 312/2/3
f 314/6/3 309/6/3 308/6/3
f 314/2/3 308/2/3 313/2/3
f 315/6/3 309/6/3 314/6/3
f 318/2/3 314/2/3 313/2/3
f 319/2/3 314/2/3 318/2/3
f 321/3/3 317/3/3 316/3/3
f 322/3/3 317/3/3 321/3/3
f 323/6/3 320/6/3 319/6/3
f 323/6/3 319/6/3 318/6/3
f 324/6/3 320/6/3 323/6/3
f 325/6/3 320/6/3 324/6/3
f 329/2/3 324/2/3 323/2/3
f 330/2/3 324/2/3 329/2/3
f 332/6/3 327/6/3 326/6/3
f 333/2/3 328/2/3 327/2/3
f 333/6/3 327/6/3 332/6/3
f 333/2/3 329/2/3 328/2/3
f 333/2/3 330/2/3 329/2/3
f 334/6/3 331/6/3 330/6/3
f 334/2/3 330/2/3 333/2/3
f 335/6/3 331/6/3 334/6/3
f 338/6/3 337/6/3 336/6/3
f 339/6/3 337/6/3 338/6/3
f 344/6/3 338/6/3 336/6/3
f 345/6/3 338/6/3 344/6/3
f 346/6/3 343/6/3 342/6/3
f 348/6/3 344/6/3 336/6/3
f 350/4/3 347/4/3 346/4/3
f 350/6/3 346/6/3 342/6/3
f 351/4/3 347/4/3 350/4/3
f 352/6/3 349/6/3 348/6/3
f 354/6/3 341/6/3 340/6/3
f 355/6/3 341/6/3 354/6/3
f 356/6/3 350/6/3 342/6/3
f 357/6/3 350/6/3 356/6/3
f 358/6/3 353/6/3 352/6/3
f 358/6/3 348/6/3 336/6/3
f 358/6/3 352/6/3 348/6/3
f 359/6/3 353/6/3 358/6/3
f 362/6/3 361/6/3 360/6/3
f 363/6/3 361/6/3 362/6/3
f 367/6/3 361/6/3 363/6/3
f 369/6/3 365/6/3 364/6/3
f 370/6/3 365/6/3 369/6/3
f 376/6/3 367/6/3 366/6/3
f 377/6/3 361/6/3 367/6/3
f 377/6/3 367/6/3 376/6/3
f 378/6/3 369/6/3 368/6/3
f 379/6/3 372/6/3 371/6/3
f 380/6/3 372/6/3 379/6/3
f 381/6/3 374/6/3 373/6/3
f 382/6/3 374/6/3 381/6/3
f 383/6/3 374/6/3 382/6/3
f 384/6/3 378/6/3 377/6/3
f 384/6/3 376/6/3 375/6/3
f 384/6/3 377/6/3 376/6/3
f 385/6/3 378/6/3 384/6/3
f 386/6/3 378/6/3 385/6/3
f 387/6/3 369/6/3 378/6/3
f 387/6/3 378/6/3 386/6/3
f 390/6/3 386/6/3 385/6/3
f 391/6/3 386/6/3 390/6/3
f 392/6/3 369/6/3 387/6/3
f 393/6/3 369/6/3 392/6/3
f 395/6/3 389/6/3 388/6/3
f 396/6/3 389/6/3 395/6/3
f 397/6/3 394/6/3 393/6/3
f 398/6/3 394/6/3 397/6/3
f 399/6/3 362/6/3 360/6/3
f 400/6/3 386/6/3 391/6/3
f 401/6/3 399/6/3 360/6/3
f 401/6/3 400/6/3 399/6/3
f 402/6/3 386/6/3 400/6/3
f 402/6/3 400/6/3 401/6/3
f 406/6/3 404/6/3 403/6/3
f 407/6/3 404/6/3 406/6/3
f 409/6/3 406/6/3 405/6/3
f 409/6/3 408/6/3 407/6/3
f 409/6/3 407/6/3 406/6/3
f 410/6/3 408/6/3 409/6/3
f 411/6/3 408/6/3 410/6/3
f 412/6/3 408/6/3 411/6/3
f 415/6/3 414/6/3 413/6/3
f 416/6/3 414/6/3 415/6/3
f 417/5/4 418/5/4 421/5/4
f 421/5/4 418/5/4 422/5/4
f 419/5/4 420/5/4 423/5/4
f 423/5/4 420/5/4 424/5/4
f 426/6/4 427/6/4 430/6/4
f 427/2/4 428/2/4 430/2/4
f 428/6/4 429/6/4 431/6/4
f 430/2/4 428/2/4 431/2/4
f 431/6/4 429/6/4 432/6/4
f 426/6/4 430/6/4 433/6/4
f 430/6/4 431/6/4 433/6/4
f 433/6/4 431/6/4 434/6/4
f 425/3/4 426/3/4 435/3/4
f 426/6/4 433/6/4 436/6/4
f 435/3/4 426/3/4 436/3/4
f 433/2/4 434/2/4 437/2/4
f 436/6/4 433/6/4 437/6/4
f 437/2/4 434/2/4 438/2/4
f 439/4/4 440/4/4 441/4/4
f 441/4/4 440/4/4 442/4/4
f 443/6/4 444/6/4 445/6/4
f 445/6/4 444/6/4 446/6/4
f 447/4/4 448/4/4 451/4/4
f 451/4/4 448/4/4 452/4/4
f 449/6/4 450/6/4 453/6/4
f 453/6/4 450/6/4 454/6/4
f 455/6/4 456/6/4 457/6/4
f 457/6/4 456/6/4 458/6/4
f 459/6/4 460/6/4 462/6/4
f 455/6/4 457/6/4 463/6/4
f 463/6/4 457/6/4 464/6/4
f 458/6/4 456/6/4 465/6/4
f 461/6/4 462/6/4 466/6/4
f 462/6/4 460/6/4 467/6/4
f 466/6/4 462/6/4 467/6/4
f 467/6/4 460/6/4 468/6/4
f 468/6/4 460/6/4 469/6/4
f 458/6/4 465/6/4 471/6/4
f 465/6/4 466/6/4 471/6/4
f 466/6/4 467/6/4 471/6/4
f 471/6/4 467/6/4 472/6/4
f 472/6/4 467/6/4 473/6/4
f 468/6/4 469/6/4 474/6/4
f 469/4/4 470/4/4 475/4/4
f 474/6/4 469/6/4 475/6/4
f 475/4/4 470/4/4 476/4/4
f 473/6/4 474/6/4 479/6/4
f 472/6/4 473/6/4 479/6/4
f 474/6/4 475/6/4 479/6/4
f 479/6/4 475/6/4 480/6/4
f 480/6/4 475/6/4 481/6/4
f 481/6/4 475/6/4 482/6/4
f 477/6/4 478/6/4 483/6/4
f 458/6/4 471/6/4 484/6/4
f 477/6/4 483/6/4 485/6/4
f 483/6/4 484/6/4 485/6/4
f 484/6/4 471/6/4 486/6/4
f 485/6/4 484/6/4 486/6/4
f 487/6/4 488/6/4 489/6/4
f 489/6/4 488/6/4 490/6/4
f 487/6/4 489/6/4 491/6/4
f 491/6/4 489/6/4 492/6/4
f 493/6/4 494/6/4 495/6/4
f 495/6/4 494/6/4 496/6/4
f 497/6/4 498/6/4 499/6/4
f 490/6/4 488/6/4 500/6/4
f 497/6/4 499/6/4 501/6/4
f 499/6/4 500/6/4 501/6/4
f 500/6/4 488/6/4 502/6/4
f 501/6/4 500/6/4 502/6/4
f 503/6/4 504/6/4 505/6/4
f 505/6/4 504/6/4 506/6/4
f 503/6/4 505/6/4 508/6/4
f 507/6/4 508/6/4 509/6/4
f 508/6/4 505/6/4 510/6/4
f 509/6/4 508/6/4 510/6/4
f 511/6/4 512/6/4 513/6/4
f 513/6/4 512/6/4 514/6/4
f 514/6/4 512/6/4 515/6/4
f 506/6/4 504/6/4 516/6/4
f 514/6/4 515/6/4 517/6/4
f 515/6/4 516/6/4 517/6/4
f 516/6/4 504/6/4 518/6/4
f 517/6/4 516/6/4 518/6/4
f 519/6/4 520/6/4 522/6/4
f 521/6/4 522/6/4 523/6/4
f 522/6/4 520/6/4 524/6/4
f 523/6/4 522/6/4 524/6/4
f 524/6/4 520/6/4 525/6/4
f 525/6/4 520/6/4 526/6/4
f 527/6/4 528/6/4 529/6/4
f 529/6/4 528/6/4 530/6/4
f 533/6/5 532/6/5 531/6/5
f 534/6/5 532/6/5 533/6/5
f 537/6/5 536/6/5 535/6/5
f 538/6/5 536/6/5 537/6/5
f 539/6/5 536/6/5 538/6/5
f 540/6/5 536/6/5 539/6/5
f 541/6/5 539/6/5 538/6/5
f 542/6/5 539/6/5 541/6/5
f 547/6/5 544/6/5 543/6/5
f 548/6/5 544/6/5 547/6/5
f 549/6/5 546/6/5 545/6/5
f 550/6/5 546/6/5 549/6/5
f 551/6/5 544/6/5 548/6/5
f 552/6/5 544/6/5 551/6/5
f 553/6/5 549/6/5 545/6/5
f 554/6/5 549/6/5 553/6/5
f 559/6/5 556/6/5 555/6/5
f 560/6/5 556/6/5 559/6/5
f 561/6/5 558/6/5 557/6/5
f 562/6/5 558/6/5 561/6/5
f 567/6/5 564/6/5 563/6/5
f 568/6/5 564/6/5 567/6/5
f 569/6/5 566/6/5 565/6/5
f 570/6/5 566/6/5 569/6/5
f 573/6/5 572/6/5 571/6/5
f 574/6/5 572/6/5 573/6/5
f 579/6/5 576/6/5 575/6/5
f 580/6/5 576/6/5 579/6/5
f 581/6/5 578/6/5 577/6/5
f 582/6/5 578/6/5 581/6/5
f 586/6/5 584/6/5 583/6/5
f 587/6/5 584/6/5 586/6/5
f 589/6/5 586/6/5 585/6/5
f 590/6/5 586/6/5 589/6/5
f 593/6/5 588/6/5 587/6/5
f 594/6/5 588/6/5 593/6/5
f 595/6/5 592/6/5 591/6/5
f 596/6/5 592/6/5 595/6/5
f 600/1/5 598/1/5 597/1/5
f 601/1/5 598/1/5 600/1/5
f 604/1/5 600/1/5 599/1/5
f 604/1/5 602/1/5 601/1/5
f 604/1/5 601/1/5 600/1/5
f 605/1/5 602/1/5 604/1/5
f 607/6/5 604/6/5 603/6/5
f 607/6/5 606/6/5 605/6/5
f 607/6/5 605/6/5 604/6/5
f 608/6/5 606/6/5 607/6/5
f 609/6/5 607/6/5 603/6/5
f 610/6/5 607/6/5 609/6/5
f 611/6/5 606/6/5 608/6/5
f 612/6/5 606/6/5 611/6/5
f 615/5/5 614/5/5 613/5/5
f 616/5/5 614/5/5 615/5/5
f 619/1/5 618/1/5 617/1/5
f 620/1/5 618/1/5 619/1/5
f 623/6/5 622/6/5 621/6/5
f 624/6/5 622/6/5 623/6/5
f 629/7/5 626/7/5 625/7/5
f 630/7/5 626/7/5 629/7/5
f 631/7/5 628/7/5 627/7/5
f 632/7/5 628/7/5 631/7/5
f 636/6/5 634/6/5 633/6/5
f 636/6/5 635/6/5 634/6/5
f 637/6/5 635/6/5 636/6/5
f 638/6/5 635/6/5 637/6/5
f 641/6/5 640/6/5 639/6/5
f 642/6/5 640/6/5 641/6/5
f 643/6/6 644/6/6 645/6/6
f 645/6/6 644/6/6 646/6/6
f 647/6/6 648/6/6 649/6/6
f 649/6/6 648/6/6 650/6/6
f 651/6/6 652/6/6 655/6/6
f 655/6/6 652/6/6 656/6/6
f 653/6/6 654/6/6 657/6/6
f 657/6/6 654/6/6 658/6/6
f 659/6/6 660/6/6 661/6/6
f 661/6/6 660/6/6 662/6/6
f 663/6/6 664/6/6 667/6/6
f 667/6/6 664/6/6 668/6/6
f 665/6/6 666/6/6 669/6/6
f 669/6/6 666/6/6 670/6/6
f 671/6/6 672/6/6 673/6/6
f 673/6/6 672/6/6 674/6/6
f 675/6/6 676/6/6 677/6/6
f 677/6/6 676/6/6 678/6/6
f 679/6/6 680/6/6 683/6/6
f 683/6/6 680/6/6 684/6/6
f 681/6/6 682/6/6 685/6/6
f 685/6/6 682/6/6 686/6/6
f 687/1/6 688/1/6 689/1/6
f 689/1/6 688/1/6 690/1/6
f 691/6/6 692/6/6 693/6/6
f 693/6/6 692/6/6 694/6/6
f 694/6/6 692/6/6 695/6/6
f 695/6/6 692/6/6 696/6/6
f 694/6/6 695/6/6 697/6/6
f 697/6/6 695/6/6 698/6/6
f 699/6/6 700/6/6 701/6/6
f 701/6/6 700/6/6 702/6/6
f 703/5/6 704/5/6 705/5/6
f 705/5/6 704/5/6 706/5/6
f 707/6/6 708/6/6 711/6/6
f 711/6/6 708/6/6 712/6/6
f 709/6/6 710/6/6 713/6/6
f 713/6/6 710/6/6 714/6/6
f 715/1/6 716/1/6 718/1/6
f 718/1/6 716/1/6 719/1/6
f 717/1/6 718/1/6 721/1/6
f 719/1/6 720/1/6 721/1/6
f 718/1/6 719/1/6 721/1/6
f 721/1/6 720/1/6 722/1/6
f 722/1/6 720/1/6 723/1/6
f 723/1/6 720/1/6 724/1/6
f 725/7/6 726/7/6 730/7/6
f 730/7/6 726/7/6 731/7/6
f 727/7/6 728/7/6 732/7/6
f 732/7/6 728/7/6 733/7/6
f 730/6/6 731/6/6 735/6/6
f 733/6/6 734/6/6 735/6/6
f 732/6/6 733/6/6 735/6/6
f 731/6/6 732/6/6 735/6/6
f 729/6/6 730/6/6 735/6/6
f 735/6/6 734/6/6 736/6/6
f 729/6/6 735/6/6 737/6/6
f 736/6/6 734/6/6 740/6/6
f 737/6/6 738/6/6 741/6/6
f 729/6/6 737/6/6 741/6/6
f 741/6/6 738/6/6 742/6/6
f 739/6/6 740/6/6 743/6/6
f 740/6/6 734/6/6 744/6/6
f 743/6/6 740/6/6 744/6/6
f 745/6/6 746/6/6 749/6/6
f 749/6/6 746/6/6 750/6/6
f 747/6/6 748/6/6 751/6/6
f 751/6/6 748/6/6 752/6/6
f 753/4/6 754/4/6 755/4/6
f 755/4/6 754/4/6 756/4/6
f 757/4/6 758/4/6 759/4/6
f 759/4/6 758/4/6 760/4/6
f 761/4/6 762/4/6 763/4/6
f 763/4/6 762/4/6 764/4/6
