# MagicaVoxel @ Ephtracy

# group
o 

# material
mtllib Hand_Тварь.mtl
usemtl palette

# normals
vn -1 0 0
vn 1 0 0
vn 0 0 1
vn 0 0 -1
vn 0 -1 0
vn 0 1 0

# texcoords
vt 0.537109 0.5
vt 0.958984 0.5

# verts
v 1 2.5 0.8
v 1 2.5 0.7
v 1 2.6 0.8
v 1 2.6 0.7
v 1 2.6 0.6
v 1 2.6 0.4
v 1 2.7 0.7
v 1 2.7 0.6
v 1 2.7 0.5
v 1 2.7 0.4
v 1 2.7 -1.1
v 1 2.9 0.8
v 1 2.9 0.7
v 1 3 0.8
v 1 3 0.7
v 1 3 0.6
v 1 3 0.5
v 1 3 0.4
v 1 3 -1.1
v 1 3.1 0.7
v 1 3.1 0.6
v 1 3.1 0.4
v 1.2 2.9 0.8
v 1.2 2.9 0.7
v 1.2 3 0.8
v 1.2 3 0.7
v 1.2 3 0.6
v 1.2 3 0.5
v 1.2 3 0.4
v 1.2 3.1 0.7
v 1.2 3.1 0.6
v 1.2 3.1 0.4
v 1.3 2.7 0.8
v 1.3 2.7 0.7
v 1.3 2.8 0.8
v 1.3 2.8 0.7
v 1.3 2.8 0.6
v 1.3 2.8 0.5
v 1.3 2.9 0.7
v 1.3 2.9 0.6
v 1.3 2.9 0.5
v 1.1 2.5 0.8
v 1.1 2.5 0.7
v 1.1 2.6 0.8
v 1.1 2.6 0.7
v 1.1 2.6 0.6
v 1.1 2.6 0.4
v 1.1 2.7 0.7
v 1.1 2.7 0.6
v 1.1 2.7 0.5
v 1.1 2.7 0.4
v 1.1 2.9 0.8
v 1.1 2.9 0.7
v 1.1 3 0.8
v 1.1 3 0.7
v 1.1 3 0.6
v 1.1 3 0.5
v 1.1 3 0.4
v 1.1 3.1 0.7
v 1.1 3.1 0.6
v 1.1 3.1 0.4
v 1.3 2.7 0.5
v 1.3 2.7 -1.1
v 1.3 2.8 0.5
v 1.3 2.8 0.4
v 1.3 2.9 0.8
v 1.3 2.9 0.7
v 1.3 2.9 0.5
v 1.3 2.9 0.4
v 1.3 3 0.8
v 1.3 3 0.7
v 1.3 3 0.6
v 1.3 3 0.5
v 1.3 3 0.4
v 1.3 3 -1.1
v 1.3 3.1 0.7
v 1.3 3.1 0.6
v 1.3 3.1 0.4
v 1.4 2.7 0.8
v 1.4 2.7 0.7
v 1.4 2.8 0.8
v 1.4 2.8 0.7
v 1.4 2.8 0.6
v 1.4 2.8 0.4
v 1.4 2.9 0.7
v 1.4 2.9 0.6
v 1.4 2.9 0.4
v 1 2.5 0.8
v 1 2.6 0.8
v 1 2.9 0.8
v 1 3 0.8
v 1.1 2.5 0.8
v 1.1 2.6 0.8
v 1.1 2.9 0.8
v 1.1 3 0.8
v 1.2 2.9 0.8
v 1.2 3 0.8
v 1.3 2.7 0.8
v 1.3 2.8 0.8
v 1.3 2.9 0.8
v 1.3 3 0.8
v 1.4 2.7 0.8
v 1.4 2.8 0.8
v 1 2.6 0.7
v 1 2.7 0.7
v 1 3 0.7
v 1 3.1 0.7
v 1.1 2.6 0.7
v 1.1 2.7 0.7
v 1.1 3 0.7
v 1.1 3.1 0.7
v 1.2 3 0.7
v 1.2 3.1 0.7
v 1.3 2.8 0.7
v 1.3 2.9 0.7
v 1.3 3 0.7
v 1.3 3.1 0.7
v 1.4 2.8 0.7
v 1.4 2.9 0.7
v 1 2.7 0.5
v 1 3 0.5
v 1.1 2.7 0.5
v 1.1 3 0.5
v 1.2 3 0.5
v 1.3 2.7 0.5
v 1.3 2.8 0.5
v 1.3 2.9 0.5
v 1.3 3 0.5
v 1 2.5 0.7
v 1 2.6 0.7
v 1 2.9 0.7
v 1 3 0.7
v 1.1 2.5 0.7
v 1.1 2.6 0.7
v 1.1 2.9 0.7
v 1.1 3 0.7
v 1.2 2.9 0.7
v 1.2 3 0.7
v 1.3 2.7 0.7
v 1.3 2.8 0.7
v 1.3 2.9 0.7
v 1.3 3 0.7
v 1.4 2.7 0.7
v 1.4 2.8 0.7
v 1 2.6 0.4
v 1 2.7 0.4
v 1 3 0.4
v 1 3.1 0.4
v 1.1 2.6 0.4
v 1.1 2.7 0.4
v 1.1 3 0.4
v 1.1 3.1 0.4
v 1.2 3 0.4
v 1.2 3.1 0.4
v 1.3 2.8 0.4
v 1.3 2.9 0.4
v 1.3 3 0.4
v 1.3 3.1 0.4
v 1.4 2.8 0.4
v 1.4 2.9 0.4
v 1 2.7 -1.1
v 1 3 -1.1
v 1.3 2.7 -1.1
v 1.3 3 -1.1
v 1 2.5 0.8
v 1.1 2.5 0.8
v 1 2.5 0.7
v 1.1 2.5 0.7
v 1 2.6 0.7
v 1.1 2.6 0.7
v 1 2.6 0.6
v 1.1 2.6 0.6
v 1 2.6 0.4
v 1.1 2.6 0.4
v 1.3 2.7 0.8
v 1.4 2.7 0.8
v 1.3 2.7 0.7
v 1.4 2.7 0.7
v 1.1 2.7 0.5
v 1.3 2.7 0.5
v 1 2.7 0.4
v 1.1 2.7 0.4
v 1 2.7 -1.1
v 1.3 2.7 -1.1
v 1.3 2.8 0.7
v 1.4 2.8 0.7
v 1.3 2.8 0.6
v 1.4 2.8 0.6
v 1.3 2.8 0.5
v 1.3 2.8 0.4
v 1.4 2.8 0.4
v 1 2.9 0.8
v 1.1 2.9 0.8
v 1.2 2.9 0.8
v 1.3 2.9 0.8
v 1 2.9 0.7
v 1.1 2.9 0.7
v 1.2 2.9 0.7
v 1.3 2.9 0.7
v 1 3 0.7
v 1.1 3 0.7
v 1.2 3 0.7
v 1.3 3 0.7
v 1 3 0.6
v 1.1 3 0.6
v 1.2 3 0.6
v 1.3 3 0.6
v 1 3 0.5
v 1.1 3 0.5
v 1.2 3 0.5
v 1.3 3 0.5
v 1 2.6 0.8
v 1.1 2.6 0.8
v 1 2.6 0.7
v 1.1 2.6 0.7
v 1 2.7 0.7
v 1.1 2.7 0.7
v 1 2.7 0.6
v 1.1 2.7 0.6
v 1 2.7 0.5
v 1.1 2.7 0.5
v 1.3 2.8 0.8
v 1.4 2.8 0.8
v 1.3 2.8 0.7
v 1.4 2.8 0.7
v 1.3 2.9 0.7
v 1.4 2.9 0.7
v 1.3 2.9 0.6
v 1.4 2.9 0.6
v 1.3 2.9 0.5
v 1.3 2.9 0.4
v 1.4 2.9 0.4
v 1 3 0.8
v 1.1 3 0.8
v 1.2 3 0.8
v 1.3 3 0.8
v 1 3 0.7
v 1.1 3 0.7
v 1.2 3 0.7
v 1.3 3 0.7
v 1.1 3 0.5
v 1.2 3 0.5
v 1 3 0.4
v 1.1 3 0.4
v 1.2 3 0.4
v 1.3 3 0.4
v 1 3 -1.1
v 1.3 3 -1.1
v 1 3.1 0.7
v 1.1 3.1 0.7
v 1.2 3.1 0.7
v 1.3 3.1 0.7
v 1 3.1 0.6
v 1.1 3.1 0.6
v 1.2 3.1 0.6
v 1.3 3.1 0.6
v 1 3.1 0.4
v 1.1 3.1 0.4
v 1.2 3.1 0.4
v 1.3 3.1 0.4

# faces
f 3/2/1 2/2/1 1/2/1
f 4/2/1 2/2/1 3/2/1
f 7/2/1 5/2/1 4/2/1
f 8/1/1 6/1/1 5/1/1
f 8/2/1 5/2/1 7/2/1
f 9/1/1 6/1/1 8/1/1
f 10/1/1 6/1/1 9/1/1
f 14/2/1 13/2/1 12/2/1
f 15/2/1 13/2/1 14/2/1
f 17/1/1 11/1/1 10/1/1
f 17/1/1 10/1/1 9/1/1
f 18/1/1 11/1/1 17/1/1
f 19/1/1 11/1/1 18/1/1
f 20/2/1 16/2/1 15/2/1
f 21/1/1 18/1/1 17/1/1
f 21/2/1 16/2/1 20/2/1
f 21/1/1 17/1/1 16/1/1
f 22/1/1 18/1/1 21/1/1
f 25/2/1 24/2/1 23/2/1
f 26/2/1 24/2/1 25/2/1
f 30/2/1 27/2/1 26/2/1
f 31/1/1 29/1/1 28/1/1
f 31/2/1 27/2/1 30/2/1
f 31/1/1 28/1/1 27/1/1
f 32/1/1 29/1/1 31/1/1
f 35/2/1 34/2/1 33/2/1
f 36/2/1 34/2/1 35/2/1
f 39/2/1 37/2/1 36/2/1
f 40/1/1 38/1/1 37/1/1
f 40/2/1 37/2/1 39/2/1
f 41/1/1 38/1/1 40/1/1
f 42/2/2 43/2/2 44/2/2
f 44/2/2 43/2/2 45/2/2
f 45/2/2 46/2/2 48/2/2
f 46/1/2 47/1/2 49/1/2
f 48/2/2 46/2/2 49/2/2
f 49/1/2 47/1/2 50/1/2
f 50/1/2 47/1/2 51/1/2
f 52/2/2 53/2/2 54/2/2
f 54/2/2 53/2/2 55/2/2
f 55/2/2 56/2/2 59/2/2
f 57/1/2 58/1/2 60/1/2
f 59/2/2 56/2/2 60/2/2
f 56/1/2 57/1/2 60/1/2
f 60/1/2 58/1/2 61/1/2
f 62/1/2 63/1/2 64/1/2
f 64/1/2 63/1/2 65/1/2
f 65/1/2 63/1/2 69/1/2
f 66/2/2 67/2/2 70/2/2
f 70/2/2 67/2/2 71/2/2
f 68/1/2 69/1/2 73/1/2
f 69/1/2 63/1/2 74/1/2
f 73/1/2 69/1/2 74/1/2
f 74/1/2 63/1/2 75/1/2
f 71/2/2 72/2/2 76/2/2
f 72/1/2 73/1/2 77/1/2
f 76/2/2 72/2/2 77/2/2
f 73/1/2 74/1/2 77/1/2
f 77/1/2 74/1/2 78/1/2
f 79/2/2 80/2/2 81/2/2
f 81/2/2 80/2/2 82/2/2
f 82/2/2 83/2/2 85/2/2
f 83/1/2 84/1/2 86/1/2
f 85/2/2 83/2/2 86/2/2
f 86/1/2 84/1/2 87/1/2
f 92/2/3 89/2/3 88/2/3
f 93/2/3 89/2/3 92/2/3
f 94/2/3 91/2/3 90/2/3
f 95/2/3 91/2/3 94/2/3
f 100/2/3 97/2/3 96/2/3
f 101/2/3 97/2/3 100/2/3
f 102/2/3 99/2/3 98/2/3
f 103/2/3 99/2/3 102/2/3
f 108/2/3 105/2/3 104/2/3
f 109/2/3 105/2/3 108/2/3
f 110/2/3 107/2/3 106/2/3
f 111/2/3 107/2/3 110/2/3
f 116/2/3 113/2/3 112/2/3
f 117/2/3 113/2/3 116/2/3
f 118/2/3 115/2/3 114/2/3
f 119/2/3 115/2/3 118/2/3
f 122/1/3 121/1/3 120/1/3
f 123/1/3 121/1/3 122/1/3
f 124/1/3 123/1/3 122/1/3
f 125/1/3 124/1/3 122/1/3
f 126/1/3 124/1/3 125/1/3
f 127/1/3 124/1/3 126/1/3
f 128/1/3 124/1/3 127/1/3
f 129/2/4 130/2/4 133/2/4
f 133/2/4 130/2/4 134/2/4
f 131/2/4 132/2/4 135/2/4
f 135/2/4 132/2/4 136/2/4
f 137/2/4 138/2/4 141/2/4
f 141/2/4 138/2/4 142/2/4
f 139/2/4 140/2/4 143/2/4
f 143/2/4 140/2/4 144/2/4
f 145/1/4 146/1/4 149/1/4
f 149/1/4 146/1/4 150/1/4
f 147/1/4 148/1/4 151/1/4
f 151/1/4 148/1/4 152/1/4
f 153/1/4 154/1/4 157/1/4
f 157/1/4 154/1/4 158/1/4
f 155/1/4 156/1/4 159/1/4
f 159/1/4 156/1/4 160/1/4
f 161/1/4 162/1/4 163/1/4
f 163/1/4 162/1/4 164/1/4
f 167/2/5 166/2/5 165/2/5
f 168/2/5 166/2/5 167/2/5
f 171/2/5 170/2/5 169/2/5
f 172/2/5 170/2/5 171/2/5
f 173/1/5 172/1/5 171/1/5
f 174/1/5 172/1/5 173/1/5
f 177/2/5 176/2/5 175/2/5
f 178/2/5 176/2/5 177/2/5
f 182/1/5 180/1/5 179/1/5
f 183/1/5 182/1/5 181/1/5
f 184/1/5 180/1/5 182/1/5
f 184/1/5 182/1/5 183/1/5
f 187/2/5 186/2/5 185/2/5
f 188/2/5 186/2/5 187/2/5
f 189/1/5 188/1/5 187/1/5
f 190/1/5 188/1/5 189/1/5
f 191/1/5 188/1/5 190/1/5
f 196/2/5 193/2/5 192/2/5
f 197/2/5 193/2/5 196/2/5
f 198/2/5 195/2/5 194/2/5
f 199/2/5 195/2/5 198/2/5
f 204/2/5 201/2/5 200/2/5
f 205/2/5 201/2/5 204/2/5
f 206/2/5 203/2/5 202/2/5
f 207/2/5 203/2/5 206/2/5
f 208/1/5 205/1/5 204/1/5
f 209/1/5 205/1/5 208/1/5
f 210/1/5 207/1/5 206/1/5
f 211/1/5 207/1/5 210/1/5
f 212/2/6 213/2/6 214/2/6
f 214/2/6 213/2/6 215/2/6
f 216/2/6 217/2/6 218/2/6
f 218/2/6 217/2/6 219/2/6
f 218/1/6 219/1/6 220/1/6
f 220/1/6 219/1/6 221/1/6
f 222/2/6 223/2/6 224/2/6
f 224/2/6 223/2/6 225/2/6
f 226/2/6 227/2/6 228/2/6
f 228/2/6 227/2/6 229/2/6
f 228/1/6 229/1/6 230/1/6
f 230/1/6 229/1/6 231/1/6
f 231/1/6 229/1/6 232/1/6
f 233/2/6 234/2/6 237/2/6
f 237/2/6 234/2/6 238/2/6
f 235/2/6 236/2/6 239/2/6
f 239/2/6 236/2/6 240/2/6
f 241/1/6 242/1/6 244/1/6
f 244/1/6 242/1/6 245/1/6
f 243/1/6 244/1/6 247/1/6
f 245/1/6 246/1/6 247/1/6
f 244/1/6 245/1/6 247/1/6
f 247/1/6 246/1/6 248/1/6
f 249/2/6 250/2/6 253/2/6
f 253/2/6 250/2/6 254/2/6
f 251/2/6 252/2/6 255/2/6
f 255/2/6 252/2/6 256/2/6
f 253/1/6 254/1/6 257/1/6
f 257/1/6 254/1/6 258/1/6
f 255/1/6 256/1/6 259/1/6
f 259/1/6 256/1/6 260/1/6
