# MagicaVoxel @ Ephtracy

# group
o 

# material
mtllib Mushroom.mtl
usemtl palette

# normals
vn -1 0 0
vn 1 0 0
vn 0 0 1
vn 0 0 -1
vn 0 -1 0
vn 0 1 0

# texcoords
vt 0.560547 0.5
vt 0.958984 0.5
vt 0.966797 0.5

# verts
v -0.9 1.3 0.4
v -0.9 1.3 0.3
v -0.9 1.3 -0.1
v -0.9 1.3 -0.2
v -0.9 1.3 -0.5
v -0.9 1.3 -0.6
v -0.9 1.3 -0.9
v -0.9 1.4 0.4
v -0.9 1.4 0.3
v -0.9 1.4 -0.1
v -0.9 1.4 -0.2
v -0.9 1.4 -0.5
v -0.9 1.4 -0.6
v -0.9 1.4 -0.9
v -0.8 1.4 0.3
v -0.8 1.4 -0.1
v -0.8 1.4 -0.2
v -0.8 1.4 -0.5
v -0.8 1.4 -0.6
v -0.8 1.4 -0.8
v -0.8 1.5 0.3
v -0.8 1.5 -0.8
v -0.4 0.4 -0.1
v -0.4 0.4 -0.4
v -0.4 1.4 -0.1
v -0.4 1.4 -0.4
v -0.3 0 -0.1
v -0.3 0 -0.4
v -0.3 0.4 -0.1
v -0.3 0.4 -0.4
v 0.2 1.3 -0.2
v 0.2 1.3 -0.3
v 0.2 1.4 -0.2
v 0.2 1.4 -0.3
v 0.3 1.3 0.3
v 0.3 1.3 -0.1
v 0.3 1.3 -0.2
v 0.3 1.3 -0.3
v 0.3 1.3 -0.8
v 0.3 1.4 0.3
v 0.3 1.4 -0.1
v 0.3 1.4 -0.2
v 0.3 1.4 -0.3
v 0.3 1.4 -0.8
v -0.8 1.3 0.3
v -0.8 1.3 -0.1
v -0.8 1.3 -0.2
v -0.8 1.3 -0.5
v -0.8 1.3 -0.6
v -0.8 1.3 -0.8
v -0.8 1.4 0.3
v -0.8 1.4 -0.1
v -0.8 1.4 -0.2
v -0.8 1.4 -0.5
v -0.8 1.4 -0.6
v -0.8 1.4 -0.8
v -0.1 0.4 -0.1
v -0.1 0.4 -0.4
v -0.1 1.4 -0.1
v -0.1 1.4 -0.4
v 0 0 -0.1
v 0 0 -0.4
v 0 0.4 -0.1
v 0 0.4 -0.4
v 0.3 1.4 0.3
v 0.3 1.4 -0.1
v 0.3 1.4 -0.2
v 0.3 1.4 -0.8
v 0.3 1.5 0.3
v 0.3 1.5 -0.8
v 0.4 1.3 0.4
v 0.4 1.3 -0.1
v 0.4 1.3 -0.2
v 0.4 1.3 -0.9
v 0.4 1.4 0.4
v 0.4 1.4 -0.1
v 0.4 1.4 -0.2
v 0.4 1.4 -0.9
v -0.9 1.3 0.4
v -0.9 1.4 0.4
v -0.8 1.3 0.4
v -0.8 1.4 0.4
v -0.4 1.3 0.4
v -0.4 1.4 0.4
v -0.3 1.3 0.4
v -0.3 1.4 0.4
v 0.1 1.3 0.4
v 0.1 1.4 0.4
v 0.2 1.3 0.4
v 0.2 1.4 0.4
v 0.4 1.3 0.4
v 0.4 1.4 0.4
v -0.8 1.4 0.3
v -0.8 1.5 0.3
v -0.4 1.4 0.3
v -0.3 1.4 0.3
v 0.1 1.4 0.3
v 0.2 1.4 0.3
v 0.3 1.4 0.3
v 0.3 1.5 0.3
v -0.4 0.4 -0.1
v -0.4 1.4 -0.1
v -0.3 0 -0.1
v -0.3 0.4 -0.1
v -0.1 0.4 -0.1
v -0.1 1.4 -0.1
v 0 0 -0.1
v 0 0.4 -0.1
v 0.2 1.3 -0.2
v 0.2 1.4 -0.2
v 0.3 1.3 -0.2
v 0.3 1.4 -0.2
v -0.8 1.3 -0.8
v -0.8 1.4 -0.8
v -0.4 1.4 -0.8
v -0.3 1.4 -0.8
v 0.1 1.3 -0.8
v 0.1 1.4 -0.8
v 0.2 1.3 -0.8
v 0.2 1.4 -0.8
v 0.3 1.3 -0.8
v 0.3 1.4 -0.8
v -0.8 1.3 0.3
v -0.8 1.4 0.3
v -0.4 1.3 0.3
v -0.4 1.4 0.3
v -0.3 1.3 0.3
v -0.3 1.4 0.3
v 0.1 1.3 0.3
v 0.1 1.4 0.3
v 0.2 1.3 0.3
v 0.2 1.4 0.3
v 0.3 1.3 0.3
v 0.3 1.4 0.3
v 0.2 1.3 -0.3
v 0.2 1.4 -0.3
v 0.3 1.3 -0.3
v 0.3 1.4 -0.3
v -0.4 0.4 -0.4
v -0.4 1.4 -0.4
v -0.3 0 -0.4
v -0.3 0.4 -0.4
v -0.2 1.4 -0.4
v -0.1 0.4 -0.4
v -0.1 1.4 -0.4
v 0 0 -0.4
v 0 0.4 -0.4
v -0.8 1.4 -0.8
v -0.8 1.5 -0.8
v -0.4 1.4 -0.8
v -0.4 1.5 -0.8
v -0.3 1.4 -0.8
v -0.3 1.5 -0.8
v 0.1 1.4 -0.8
v 0.2 1.4 -0.8
v 0.3 1.4 -0.8
v 0.3 1.5 -0.8
v -0.9 1.3 -0.9
v -0.9 1.4 -0.9
v 0.1 1.3 -0.9
v 0.1 1.4 -0.9
v 0.2 1.3 -0.9
v 0.2 1.4 -0.9
v 0.4 1.3 -0.9
v 0.4 1.4 -0.9
v -0.3 0 -0.1
v 0 0 -0.1
v -0.3 0 -0.4
v 0 0 -0.4
v -0.4 0.4 -0.1
v -0.3 0.4 -0.1
v -0.4 0.4 -0.4
v -0.3 0.4 -0.4
v -0.9 1.3 0.4
v -0.8 1.3 0.4
v -0.4 1.3 0.4
v -0.3 1.3 0.4
v 0.1 1.3 0.4
v 0.2 1.3 0.4
v 0.4 1.3 0.4
v -0.9 1.3 0.3
v -0.8 1.3 0.3
v -0.4 1.3 0.3
v -0.3 1.3 0.3
v 0.1 1.3 0.3
v 0.2 1.3 0.3
v 0.3 1.3 0.3
v -0.9 1.3 -0.1
v -0.8 1.3 -0.1
v 0.3 1.3 -0.1
v 0.4 1.3 -0.1
v -0.9 1.3 -0.2
v -0.8 1.3 -0.2
v 0.2 1.3 -0.2
v 0.3 1.3 -0.2
v 0.4 1.3 -0.2
v 0.2 1.3 -0.3
v 0.3 1.3 -0.3
v -0.9 1.3 -0.5
v -0.8 1.3 -0.5
v -0.9 1.3 -0.6
v -0.8 1.3 -0.6
v -0.8 1.3 -0.8
v 0.1 1.3 -0.8
v 0.2 1.3 -0.8
v 0.3 1.3 -0.8
v -0.9 1.3 -0.9
v 0.1 1.3 -0.9
v 0.2 1.3 -0.9
v 0.4 1.3 -0.9
v -0.8 1.4 0.3
v -0.4 1.4 0.3
v -0.3 1.4 0.3
v 0.1 1.4 0.3
v 0.2 1.4 0.3
v 0.3 1.4 0.3
v -0.7 1.4 0.2
v -0.6 1.4 0.2
v -0.7 1.4 0.1
v -0.6 1.4 0.1
v -0.4 1.4 0.1
v -0.3 1.4 0.1
v -0.4 1.4 0
v -0.3 1.4 0
v -0.8 1.4 -0.1
v -0.4 1.4 -0.1
v -0.1 1.4 -0.1
v 0.3 1.4 -0.1
v -0.8 1.4 -0.2
v 0.1 1.4 -0.2
v 0.2 1.4 -0.2
v 0.3 1.4 -0.2
v 0.1 1.4 -0.3
v 0.2 1.4 -0.3
v 0.3 1.4 -0.3
v -0.6 1.4 -0.4
v -0.5 1.4 -0.4
v -0.4 1.4 -0.4
v -0.2 1.4 -0.4
v -0.1 1.4 -0.4
v -0.8 1.4 -0.5
v -0.6 1.4 -0.5
v -0.5 1.4 -0.5
v -0.2 1.4 -0.5
v -0.1 1.4 -0.5
v -0.8 1.4 -0.6
v -0.1 1.4 -0.6
v 0 1.4 -0.6
v -0.4 1.4 -0.7
v -0.3 1.4 -0.7
v -0.1 1.4 -0.7
v 0 1.4 -0.7
v -0.8 1.4 -0.8
v -0.4 1.4 -0.8
v -0.3 1.4 -0.8
v 0.1 1.4 -0.8
v 0.2 1.4 -0.8
v 0.3 1.4 -0.8
v -0.1 0.4 -0.1
v 0 0.4 -0.1
v -0.1 0.4 -0.4
v 0 0.4 -0.4
v -0.9 1.4 0.4
v -0.8 1.4 0.4
v -0.4 1.4 0.4
v -0.3 1.4 0.4
v 0.1 1.4 0.4
v 0.2 1.4 0.4
v 0.4 1.4 0.4
v -0.9 1.4 0.3
v -0.8 1.4 0.3
v -0.4 1.4 0.3
v -0.3 1.4 0.3
v 0.1 1.4 0.3
v 0.2 1.4 0.3
v 0.3 1.4 0.3
v -0.9 1.4 -0.1
v -0.8 1.4 -0.1
v 0.3 1.4 -0.1
v 0.4 1.4 -0.1
v -0.9 1.4 -0.2
v -0.8 1.4 -0.2
v 0.3 1.4 -0.2
v 0.4 1.4 -0.2
v -0.9 1.4 -0.5
v -0.8 1.4 -0.5
v -0.9 1.4 -0.6
v -0.8 1.4 -0.6
v -0.8 1.4 -0.8
v -0.4 1.4 -0.8
v -0.3 1.4 -0.8
v 0.1 1.4 -0.8
v 0.2 1.4 -0.8
v 0.3 1.4 -0.8
v -0.9 1.4 -0.9
v 0.1 1.4 -0.9
v 0.2 1.4 -0.9
v 0.4 1.4 -0.9
v -0.8 1.5 0.3
v 0.3 1.5 0.3
v -0.7 1.5 0.2
v -0.6 1.5 0.2
v -0.7 1.5 0.1
v -0.6 1.5 0.1
v -0.4 1.5 0.1
v -0.3 1.5 0.1
v -0.4 1.5 0
v -0.3 1.5 0
v -0.2 1.5 -0.1
v -0.1 1.5 -0.1
v -0.2 1.5 -0.2
v -0.1 1.5 -0.2
v 0.1 1.5 -0.2
v 0.2 1.5 -0.2
v 0.1 1.5 -0.3
v 0.2 1.5 -0.3
v -0.6 1.5 -0.4
v -0.5 1.5 -0.4
v -0.2 1.5 -0.4
v -0.1 1.5 -0.4
v -0.6 1.5 -0.5
v -0.5 1.5 -0.5
v -0.2 1.5 -0.5
v -0.1 1.5 -0.5
v -0.1 1.5 -0.6
v 0 1.5 -0.6
v -0.4 1.5 -0.7
v -0.3 1.5 -0.7
v -0.1 1.5 -0.7
v 0 1.5 -0.7
v -0.8 1.5 -0.8
v -0.4 1.5 -0.8
v -0.3 1.5 -0.8
v 0.3 1.5 -0.8

# faces
f 8/2/1 2/2/1 1/2/1
f 9/1/1 3/1/1 2/1/1
f 9/2/1 2/2/1 8/2/1
f 10/2/1 4/2/1 3/2/1
f 10/1/1 3/1/1 9/1/1
f 11/1/1 5/1/1 4/1/1
f 11/2/1 4/2/1 10/2/1
f 12/2/1 6/2/1 5/2/1
f 12/1/1 5/1/1 11/1/1
f 13/1/1 7/1/1 6/1/1
f 13/2/1 6/2/1 12/2/1
f 14/1/1 7/1/1 13/1/1
f 21/1/1 16/1/1 15/1/1
f 21/1/1 20/1/1 19/1/1
f 21/1/1 19/1/1 18/1/1
f 21/1/1 18/1/1 17/1/1
f 21/1/1 17/1/1 16/1/1
f 22/1/1 20/1/1 21/1/1
f 25/3/1 24/3/1 23/3/1
f 26/3/1 24/3/1 25/3/1
f 29/3/1 28/3/1 27/3/1
f 30/3/1 28/3/1 29/3/1
f 33/1/1 32/1/1 31/1/1
f 34/1/1 32/1/1 33/1/1
f 40/1/1 36/1/1 35/1/1
f 41/2/1 37/2/1 36/2/1
f 41/1/1 36/1/1 40/1/1
f 42/2/1 37/2/1 41/2/1
f 43/1/1 39/1/1 38/1/1
f 44/1/1 39/1/1 43/1/1
f 45/1/2 46/1/2 51/1/2
f 46/2/2 47/2/2 52/2/2
f 51/1/2 46/1/2 52/1/2
f 47/1/2 48/1/2 53/1/2
f 52/2/2 47/2/2 53/2/2
f 48/2/2 49/2/2 54/2/2
f 53/1/2 48/1/2 54/1/2
f 49/1/2 50/1/2 55/1/2
f 54/2/2 49/2/2 55/2/2
f 55/1/2 50/1/2 56/1/2
f 57/3/2 58/3/2 59/3/2
f 59/3/2 58/3/2 60/3/2
f 61/3/2 62/3/2 63/3/2
f 63/3/2 62/3/2 64/3/2
f 65/1/2 66/1/2 69/1/2
f 67/1/2 68/1/2 69/1/2
f 66/1/2 67/1/2 69/1/2
f 69/1/2 68/1/2 70/1/2
f 71/1/2 72/1/2 75/1/2
f 72/2/2 73/2/2 76/2/2
f 75/1/2 72/1/2 76/1/2
f 73/1/2 74/1/2 77/1/2
f 76/2/2 73/2/2 77/2/2
f 77/1/2 74/1/2 78/1/2
f 81/2/3 80/2/3 79/2/3
f 82/2/3 80/2/3 81/2/3
f 83/1/3 82/1/3 81/1/3
f 84/1/3 82/1/3 83/1/3
f 85/2/3 84/2/3 83/2/3
f 86/2/3 84/2/3 85/2/3
f 87/1/3 86/1/3 85/1/3
f 88/1/3 86/1/3 87/1/3
f 89/2/3 88/2/3 87/2/3
f 90/2/3 88/2/3 89/2/3
f 91/1/3 90/1/3 89/1/3
f 92/1/3 90/1/3 91/1/3
f 95/1/3 94/1/3 93/1/3
f 96/1/3 94/1/3 95/1/3
f 97/1/3 94/1/3 96/1/3
f 98/1/3 94/1/3 97/1/3
f 99/1/3 94/1/3 98/1/3
f 100/1/3 94/1/3 99/1/3
f 104/3/3 102/3/3 101/3/3
f 105/3/3 102/3/3 104/3/3
f 105/3/3 104/3/3 103/3/3
f 106/3/3 102/3/3 105/3/3
f 107/3/3 105/3/3 103/3/3
f 108/3/3 105/3/3 107/3/3
f 111/1/3 110/1/3 109/1/3
f 112/1/3 110/1/3 111/1/3
f 115/1/3 114/1/3 113/1/3
f 116/1/3 115/1/3 113/1/3
f 117/1/3 116/1/3 113/1/3
f 118/1/3 116/1/3 117/1/3
f 119/2/3 118/2/3 117/2/3
f 120/2/3 118/2/3 119/2/3
f 121/1/3 120/1/3 119/1/3
f 122/1/3 120/1/3 121/1/3
f 123/1/4 124/1/4 125/1/4
f 125/1/4 124/1/4 126/1/4
f 125/2/4 126/2/4 127/2/4
f 127/2/4 126/2/4 128/2/4
f 127/1/4 128/1/4 129/1/4
f 129/1/4 128/1/4 130/1/4
f 129/2/4 130/2/4 131/2/4
f 131/2/4 130/2/4 132/2/4
f 131/1/4 132/1/4 133/1/4
f 133/1/4 132/1/4 134/1/4
f 135/1/4 136/1/4 137/1/4
f 137/1/4 136/1/4 138/1/4
f 139/3/4 140/3/4 142/3/4
f 142/3/4 140/3/4 143/3/4
f 141/3/4 142/3/4 143/3/4
f 141/3/4 143/3/4 144/3/4
f 144/3/4 143/3/4 145/3/4
f 141/3/4 144/3/4 146/3/4
f 146/3/4 144/3/4 147/3/4
f 148/1/4 149/1/4 150/1/4
f 150/1/4 149/1/4 151/1/4
f 150/2/4 151/2/4 152/2/4
f 152/2/4 151/2/4 153/2/4
f 152/1/4 153/1/4 154/1/4
f 154/1/4 153/1/4 155/1/4
f 155/1/4 153/1/4 156/1/4
f 156/1/4 153/1/4 157/1/4
f 158/1/4 159/1/4 160/1/4
f 160/1/4 159/1/4 161/1/4
f 160/2/4 161/2/4 162/2/4
f 162/2/4 161/2/4 163/2/4
f 162/1/4 163/1/4 164/1/4
f 164/1/4 163/1/4 165/1/4
f 168/3/5 167/3/5 166/3/5
f 169/3/5 167/3/5 168/3/5
f 172/3/5 171/3/5 170/3/5
f 173/3/5 171/3/5 172/3/5
f 181/2/5 175/2/5 174/2/5
f 182/1/5 176/1/5 175/1/5
f 182/2/5 175/2/5 181/2/5
f 183/2/5 177/2/5 176/2/5
f 183/1/5 176/1/5 182/1/5
f 184/1/5 178/1/5 177/1/5
f 184/2/5 177/2/5 183/2/5
f 185/2/5 179/2/5 178/2/5
f 185/1/5 178/1/5 184/1/5
f 186/1/5 180/1/5 179/1/5
f 186/2/5 179/2/5 185/2/5
f 187/1/5 180/1/5 186/1/5
f 188/1/5 182/1/5 181/1/5
f 189/1/5 182/1/5 188/1/5
f 190/1/5 180/1/5 187/1/5
f 191/1/5 180/1/5 190/1/5
f 192/2/5 189/2/5 188/2/5
f 193/2/5 189/2/5 192/2/5
f 195/2/5 191/2/5 190/2/5
f 196/2/5 191/2/5 195/2/5
f 197/1/5 195/1/5 194/1/5
f 197/1/5 196/1/5 195/1/5
f 198/1/5 196/1/5 197/1/5
f 199/1/5 193/1/5 192/1/5
f 200/1/5 193/1/5 199/1/5
f 201/2/5 200/2/5 199/2/5
f 202/2/5 200/2/5 201/2/5
f 203/1/5 202/1/5 201/1/5
f 206/1/5 196/1/5 198/1/5
f 207/1/5 203/1/5 201/1/5
f 207/1/5 204/1/5 203/1/5
f 208/2/5 205/2/5 204/2/5
f 208/1/5 204/1/5 207/1/5
f 209/1/5 206/1/5 205/1/5
f 209/2/5 205/2/5 208/2/5
f 210/1/5 196/1/5 206/1/5
f 210/1/5 206/1/5 209/1/5
f 217/1/5 212/1/5 211/1/5
f 217/1/5 216/1/5 215/1/5
f 217/1/5 215/1/5 214/1/5
f 217/1/5 214/1/5 213/1/5
f 217/1/5 213/1/5 212/1/5
f 218/1/5 216/1/5 217/1/5
f 219/1/5 217/1/5 211/1/5
f 219/2/5 218/2/5 217/2/5
f 220/1/5 216/1/5 218/1/5
f 220/2/5 218/2/5 219/2/5
f 221/1/5 216/1/5 220/1/5
f 222/1/5 216/1/5 221/1/5
f 223/1/5 220/1/5 219/1/5
f 223/1/5 221/1/5 220/1/5
f 223/2/5 222/2/5 221/2/5
f 224/1/5 216/1/5 222/1/5
f 224/2/5 222/2/5 223/2/5
f 225/1/5 219/1/5 211/1/5
f 225/1/5 223/1/5 219/1/5
f 225/1/5 224/1/5 223/1/5
f 226/1/5 224/1/5 225/1/5
f 227/1/5 216/1/5 224/1/5
f 227/1/5 224/1/5 226/1/5
f 228/1/5 216/1/5 227/1/5
f 229/1/5 226/1/5 225/1/5
f 230/1/5 228/1/5 227/1/5
f 231/1/5 228/1/5 230/1/5
f 232/1/5 228/1/5 231/1/5
f 233/1/5 230/1/5 227/1/5
f 233/2/5 231/2/5 230/2/5
f 234/2/5 231/2/5 233/2/5
f 236/1/5 226/1/5 229/1/5
f 237/1/5 226/1/5 236/1/5
f 238/1/5 226/1/5 237/1/5
f 240/1/5 235/1/5 234/1/5
f 240/1/5 233/1/5 227/1/5
f 240/1/5 234/1/5 233/1/5
f 241/1/5 236/1/5 229/1/5
f 242/2/5 237/2/5 236/2/5
f 242/1/5 236/1/5 241/1/5
f 243/1/5 239/1/5 238/1/5
f 243/2/5 237/2/5 242/2/5
f 243/1/5 238/1/5 237/1/5
f 244/2/5 240/2/5 239/2/5
f 244/1/5 239/1/5 243/1/5
f 245/1/5 235/1/5 240/1/5
f 245/2/5 240/2/5 244/2/5
f 246/1/5 242/1/5 241/1/5
f 246/1/5 244/1/5 243/1/5
f 246/1/5 245/1/5 244/1/5
f 246/1/5 243/1/5 242/1/5
f 247/1/5 235/1/5 245/1/5
f 247/1/5 245/1/5 246/1/5
f 248/1/5 235/1/5 247/1/5
f 249/1/5 247/1/5 246/1/5
f 250/1/5 247/1/5 249/1/5
f 251/2/5 248/2/5 247/2/5
f 251/1/5 247/1/5 250/1/5
f 252/1/5 235/1/5 248/1/5
f 252/2/5 248/2/5 251/2/5
f 253/1/5 249/1/5 246/1/5
f 254/2/5 250/2/5 249/2/5
f 254/1/5 249/1/5 253/1/5
f 255/1/5 251/1/5 250/1/5
f 255/2/5 250/2/5 254/2/5
f 255/1/5 252/1/5 251/1/5
f 256/1/5 235/1/5 252/1/5
f 256/1/5 252/1/5 255/1/5
f 257/1/5 235/1/5 256/1/5
f 258/1/5 235/1/5 257/1/5
f 259/3/6 260/3/6 261/3/6
f 261/3/6 260/3/6 262/3/6
f 263/2/6 264/2/6 270/2/6
f 264/1/6 265/1/6 271/1/6
f 270/2/6 264/2/6 271/2/6
f 265/2/6 266/2/6 272/2/6
f 271/1/6 265/1/6 272/1/6
f 266/1/6 267/1/6 273/1/6
f 272/2/6 266/2/6 273/2/6
f 267/2/6 268/2/6 274/2/6
f 273/1/6 267/1/6 274/1/6
f 268/1/6 269/1/6 275/1/6
f 274/2/6 268/2/6 275/2/6
f 275/1/6 269/1/6 276/1/6
f 270/1/6 271/1/6 277/1/6
f 277/1/6 271/1/6 278/1/6
f 276/1/6 269/1/6 279/1/6
f 279/1/6 269/1/6 280/1/6
f 277/2/6 278/2/6 281/2/6
f 281/2/6 278/2/6 282/2/6
f 279/2/6 280/2/6 283/2/6
f 283/2/6 280/2/6 284/2/6
f 281/1/6 282/1/6 285/1/6
f 285/1/6 282/1/6 286/1/6
f 285/2/6 286/2/6 287/2/6
f 287/2/6 286/2/6 288/2/6
f 287/1/6 288/1/6 289/1/6
f 283/1/6 284/1/6 294/1/6
f 287/1/6 289/1/6 295/1/6
f 289/1/6 290/1/6 295/1/6
f 290/1/6 291/1/6 295/1/6
f 291/1/6 292/1/6 295/1/6
f 292/2/6 293/2/6 296/2/6
f 295/1/6 292/1/6 296/1/6
f 293/1/6 294/1/6 297/1/6
f 296/2/6 293/2/6 297/2/6
f 294/1/6 284/1/6 298/1/6
f 297/1/6 294/1/6 298/1/6
f 299/1/6 300/1/6 301/1/6
f 301/1/6 300/1/6 302/1/6
f 299/1/6 301/1/6 303/1/6
f 301/2/6 302/2/6 303/2/6
f 302/1/6 300/1/6 304/1/6
f 303/2/6 302/2/6 304/2/6
f 304/1/6 300/1/6 305/1/6
f 305/1/6 300/1/6 306/1/6
f 303/1/6 304/1/6 307/1/6
f 304/1/6 305/1/6 307/1/6
f 305/2/6 306/2/6 307/2/6
f 306/1/6 300/1/6 308/1/6
f 307/2/6 306/2/6 308/2/6
f 307/1/6 308/1/6 309/1/6
f 308/1/6 300/1/6 309/1/6
f 309/1/6 300/1/6 310/1/6
f 307/1/6 309/1/6 311/1/6
f 309/2/6 310/2/6 311/2/6
f 310/1/6 300/1/6 312/1/6
f 311/2/6 310/2/6 312/2/6
f 312/1/6 300/1/6 313/1/6
f 313/1/6 300/1/6 314/1/6
f 311/1/6 312/1/6 315/1/6
f 312/1/6 313/1/6 315/1/6
f 313/2/6 314/2/6 315/2/6
f 314/1/6 300/1/6 316/1/6
f 315/2/6 314/2/6 316/2/6
f 303/1/6 307/1/6 317/1/6
f 307/1/6 311/1/6 317/1/6
f 315/1/6 316/1/6 317/1/6
f 311/1/6 315/1/6 317/1/6
f 317/1/6 316/1/6 318/1/6
f 318/1/6 316/1/6 319/1/6
f 319/1/6 316/1/6 320/1/6
f 303/1/6 317/1/6 321/1/6
f 317/2/6 318/2/6 321/2/6
f 318/1/6 319/1/6 322/1/6
f 321/2/6 318/2/6 322/2/6
f 319/2/6 320/2/6 323/2/6
f 322/1/6 319/1/6 323/1/6
f 320/1/6 316/1/6 324/1/6
f 323/2/6 320/2/6 324/2/6
f 322/1/6 323/1/6 325/1/6
f 324/1/6 316/1/6 325/1/6
f 323/1/6 324/1/6 325/1/6
f 321/1/6 322/1/6 325/1/6
f 325/1/6 316/1/6 326/1/6
f 321/1/6 325/1/6 327/1/6
f 327/1/6 325/1/6 328/1/6
f 325/2/6 326/2/6 329/2/6
f 328/1/6 325/1/6 329/1/6
f 326/1/6 316/1/6 330/1/6
f 329/2/6 326/2/6 330/2/6
f 299/1/6 303/1/6 331/1/6
f 303/1/6 321/1/6 331/1/6
f 321/1/6 327/1/6 331/1/6
f 327/2/6 328/2/6 332/2/6
f 331/1/6 327/1/6 332/1/6
f 329/1/6 330/1/6 333/1/6
f 332/2/6 328/2/6 333/2/6
f 328/1/6 329/1/6 333/1/6
f 330/1/6 316/1/6 334/1/6
f 333/1/6 330/1/6 334/1/6
f 316/1/6 300/1/6 334/1/6
