# MagicaVoxel @ Ephtracy

# group
o 

# material
mtllib Wing_Chicken.mtl
usemtl palette

# normals
vn -1 0 0
vn 1 0 0
vn 0 0 1
vn 0 0 -1
vn 0 -1 0
vn 0 1 0

# texcoords
vt 0.958984 0.5
vt 0.966797 0.5

# verts
v 0.3 1.9 0.4
v 0.3 1.9 0.1
v 0.3 2.4 0.2
v 0.3 2.4 0.1
v 0.3 2.5 0.3
v 0.3 2.5 0.2
v 0.3 2.6 0.4
v 0.3 2.6 0.3
v 0.4 1.9 0.1
v 0.4 1.9 -0.1
v 0.4 1.9 -0.2
v 0.4 1.9 -0.3
v 0.4 2 -0.1
v 0.4 2 -0.2
v 0.4 2.1 -0.1
v 0.4 2.1 -0.3
v 0.4 2.2 0
v 0.4 2.2 -0.1
v 0.4 2.3 0.1
v 0.4 2.3 0
v 0.5 1.9 0.4
v 0.5 1.9 -0.1
v 0.5 1.9 -0.2
v 0.5 1.9 -0.3
v 0.5 2 0.3
v 0.5 2 0.1
v 0.5 2 -0.1
v 0.5 2 -0.2
v 0.5 2.1 0.2
v 0.5 2.1 0.1
v 0.5 2.1 -0.1
v 0.5 2.1 -0.3
v 0.5 2.2 0.3
v 0.5 2.2 0.2
v 0.5 2.2 0
v 0.5 2.2 -0.1
v 0.5 2.3 0.1
v 0.5 2.3 0
v 0.5 2.4 0.2
v 0.5 2.4 0.1
v 0.5 2.5 0.3
v 0.5 2.5 0.2
v 0.5 2.6 0.4
v 0.5 2.6 0.3
v 0.6 2 0.3
v 0.6 2 0.1
v 0.6 2.1 0.2
v 0.6 2.1 0.1
v 0.6 2.2 0.3
v 0.6 2.2 0.2
v 0.3 1.9 0.4
v 0.3 2.6 0.4
v 0.5 1.9 0.4
v 0.5 2.6 0.4
v 0.5 2 0.3
v 0.5 2.2 0.3
v 0.6 2 0.3
v 0.6 2.2 0.3
v 0.4 1.9 -0.2
v 0.4 2 -0.2
v 0.5 1.9 -0.2
v 0.5 2 -0.2
v 0.3 2.5 0.3
v 0.3 2.6 0.3
v 0.5 2.5 0.3
v 0.5 2.6 0.3
v 0.3 2.4 0.2
v 0.3 2.5 0.2
v 0.5 2.1 0.2
v 0.5 2.2 0.2
v 0.5 2.4 0.2
v 0.5 2.5 0.2
v 0.6 2.1 0.2
v 0.6 2.2 0.2
v 0.3 1.9 0.1
v 0.3 2.4 0.1
v 0.4 1.9 0.1
v 0.4 2.3 0.1
v 0.5 2 0.1
v 0.5 2.1 0.1
v 0.5 2.3 0.1
v 0.5 2.4 0.1
v 0.6 2 0.1
v 0.6 2.1 0.1
v 0.4 2.2 0
v 0.4 2.3 0
v 0.5 2.2 0
v 0.5 2.3 0
v 0.4 1.9 -0.1
v 0.4 2 -0.1
v 0.4 2.1 -0.1
v 0.4 2.2 -0.1
v 0.5 1.9 -0.1
v 0.5 2 -0.1
v 0.5 2.1 -0.1
v 0.5 2.2 -0.1
v 0.4 1.9 -0.3
v 0.4 2.1 -0.3
v 0.5 1.9 -0.3
v 0.5 2.1 -0.3
v 0.3 1.9 0.4
v 0.5 1.9 0.4
v 0.3 1.9 0.1
v 0.4 1.9 0.1
v 0.4 1.9 -0.1
v 0.5 1.9 -0.1
v 0.4 1.9 -0.2
v 0.5 1.9 -0.2
v 0.4 1.9 -0.3
v 0.5 1.9 -0.3
v 0.5 2 0.3
v 0.6 2 0.3
v 0.5 2 0.1
v 0.6 2 0.1
v 0.4 2 -0.1
v 0.5 2 -0.1
v 0.4 2 -0.2
v 0.5 2 -0.2
v 0.5 2.1 0.2
v 0.6 2.1 0.2
v 0.5 2.1 0.1
v 0.6 2.1 0.1
v 0.4 2.1 -0.1
v 0.5 2.1 -0.1
v 0.4 2.1 -0.3
v 0.5 2.1 -0.3
v 0.5 2.2 0.3
v 0.6 2.2 0.3
v 0.5 2.2 0.2
v 0.6 2.2 0.2
v 0.4 2.2 0
v 0.5 2.2 0
v 0.4 2.2 -0.1
v 0.5 2.2 -0.1
v 0.4 2.3 0.1
v 0.5 2.3 0.1
v 0.4 2.3 0
v 0.5 2.3 0
v 0.3 2.4 0.2
v 0.5 2.4 0.2
v 0.3 2.4 0.1
v 0.5 2.4 0.1
v 0.3 2.5 0.3
v 0.5 2.5 0.3
v 0.3 2.5 0.2
v 0.5 2.5 0.2
v 0.3 2.6 0.4
v 0.5 2.6 0.4
v 0.3 2.6 0.3
v 0.5 2.6 0.3

# faces
f 3/2/1 2/2/1 1/2/1
f 4/2/1 2/2/1 3/2/1
f 5/2/1 3/2/1 1/2/1
f 6/2/1 3/2/1 5/2/1
f 7/2/1 5/2/1 1/2/1
f 8/2/1 5/2/1 7/2/1
f 13/2/1 10/2/1 9/2/1
f 14/1/1 12/1/1 11/1/1
f 15/2/1 13/2/1 9/2/1
f 15/1/1 14/1/1 13/1/1
f 16/1/1 12/1/1 14/1/1
f 16/1/1 14/1/1 15/1/1
f 17/2/1 15/2/1 9/2/1
f 18/2/1 15/2/1 17/2/1
f 19/2/1 17/2/1 9/2/1
f 20/2/1 17/2/1 19/2/1
f 21/2/2 22/2/2 25/2/2
f 25/2/2 22/2/2 26/2/2
f 26/2/2 22/2/2 27/2/2
f 23/1/2 24/1/2 28/1/2
f 26/2/2 27/2/2 30/2/2
f 27/1/2 28/1/2 31/1/2
f 30/2/2 27/2/2 31/2/2
f 28/1/2 24/1/2 32/1/2
f 31/1/2 28/1/2 32/1/2
f 21/2/2 25/2/2 33/2/2
f 30/2/2 31/2/2 34/2/2
f 29/2/2 30/2/2 34/2/2
f 34/2/2 31/2/2 35/2/2
f 35/2/2 31/2/2 36/2/2
f 33/2/2 34/2/2 37/2/2
f 34/2/2 35/2/2 37/2/2
f 37/2/2 35/2/2 38/2/2
f 33/2/2 37/2/2 39/2/2
f 39/2/2 37/2/2 40/2/2
f 21/2/2 33/2/2 41/2/2
f 33/2/2 39/2/2 41/2/2
f 41/2/2 39/2/2 42/2/2
f 21/2/2 41/2/2 43/2/2
f 43/2/2 41/2/2 44/2/2
f 45/2/2 46/2/2 47/2/2
f 47/2/2 46/2/2 48/2/2
f 45/2/2 47/2/2 49/2/2
f 49/2/2 47/2/2 50/2/2
f 53/2/3 52/2/3 51/2/3
f 54/2/3 52/2/3 53/2/3
f 57/2/3 56/2/3 55/2/3
f 58/2/3 56/2/3 57/2/3
f 61/1/3 60/1/3 59/1/3
f 62/1/3 60/1/3 61/1/3
f 63/2/4 64/2/4 65/2/4
f 65/2/4 64/2/4 66/2/4
f 67/2/4 68/2/4 71/2/4
f 71/2/4 68/2/4 72/2/4
f 69/2/4 70/2/4 73/2/4
f 73/2/4 70/2/4 74/2/4
f 75/2/4 76/2/4 77/2/4
f 77/2/4 76/2/4 78/2/4
f 78/2/4 76/2/4 81/2/4
f 81/2/4 76/2/4 82/2/4
f 79/2/4 80/2/4 83/2/4
f 83/2/4 80/2/4 84/2/4
f 85/2/4 86/2/4 87/2/4
f 87/2/4 86/2/4 88/2/4
f 89/2/4 90/2/4 93/2/4
f 93/2/4 90/2/4 94/2/4
f 91/2/4 92/2/4 95/2/4
f 95/2/4 92/2/4 96/2/4
f 97/1/4 98/1/4 99/1/4
f 99/1/4 98/1/4 100/1/4
f 103/2/5 102/2/5 101/2/5
f 104/2/5 102/2/5 103/2/5
f 105/2/5 102/2/5 104/2/5
f 106/2/5 102/2/5 105/2/5
f 109/1/5 108/1/5 107/1/5
f 110/1/5 108/1/5 109/1/5
f 113/2/5 112/2/5 111/2/5
f 114/2/5 112/2/5 113/2/5
f 117/1/5 116/1/5 115/1/5
f 118/1/5 116/1/5 117/1/5
f 119/2/6 120/2/6 121/2/6
f 121/2/6 120/2/6 122/2/6
f 123/1/6 124/1/6 125/1/6
f 125/1/6 124/1/6 126/1/6
f 127/2/6 128/2/6 129/2/6
f 129/2/6 128/2/6 130/2/6
f 131/2/6 132/2/6 133/2/6
f 133/2/6 132/2/6 134/2/6
f 135/2/6 136/2/6 137/2/6
f 137/2/6 136/2/6 138/2/6
f 139/2/6 140/2/6 141/2/6
f 141/2/6 140/2/6 142/2/6
f 143/2/6 144/2/6 145/2/6
f 145/2/6 144/2/6 146/2/6
f 147/2/6 148/2/6 149/2/6
f 149/2/6 148/2/6 150/2/6
